<?xml version="1.0" encoding="utf-8"?>
<!-- Generator: Adobe Illustrator 24.2.1, SVG Export Plug-In . SVG Version: 6.00 Build 0)  -->
<svg version="1.1" id="Ebene_1" xmlns="http://www.w3.org/2000/svg" xmlns:xlink="http://www.w3.org/1999/xlink" x="0px" y="0px"
	 viewBox="0 0 595.3 198.4" style="enable-background:new 0 0 595.3 198.4;" xml:space="preserve">
<style type="text/css">
	.st0{fill:#DD3333;}
	.st1{clip-path:url(#SVGID_2_);fill:#E30613;}
	.st2{clip-path:url(#SVGID_4_);fill:#FFFFFF;}
	.st3{clip-path:url(#SVGID_6_);fill:none;stroke:#E30613;stroke-width:1.1529;stroke-miterlimit:2;}
	.st4{clip-path:url(#SVGID_8_);fill:#FFFFFF;}
	.st5{clip-path:url(#SVGID_10_);fill:none;stroke:#E30613;stroke-width:1.1529;stroke-miterlimit:2;}
	.st6{clip-path:url(#SVGID_12_);fill:#FFFFFF;}
	.st7{clip-path:url(#SVGID_14_);fill:none;stroke:#FFFFFF;stroke-width:0.6869;}
	.st8{clip-path:url(#SVGID_16_);fill:#FFFFFF;}
	.st9{clip-path:url(#SVGID_18_);fill:#DD3333;}
	.st10{clip-path:url(#SVGID_20_);fill:#FFFFFF;}
	.st11{clip-path:url(#SVGID_22_);fill:none;stroke:#E30613;stroke-width:1.2251;stroke-miterlimit:2;}
	.st12{clip-path:url(#SVGID_24_);fill:#FFFFFF;}
	.st13{clip-path:url(#SVGID_26_);fill:none;stroke:#E30613;stroke-width:1.2251;stroke-miterlimit:2;}
</style>
<rect x="172.3" y="13.3" class="st0" width="422" height="162.3"/>
<rect x="0.3" y="13.3" class="st0" width="162.3" height="162.3"/>
<g>
	<g>
		<g>
			<defs>
				<rect id="SVGID_1_" x="0.3" y="13.3" width="594" height="175.8"/>
			</defs>
			<clipPath id="SVGID_2_">
				<use xlink:href="#SVGID_1_"  style="overflow:visible;"/>
			</clipPath>
			<path class="st1" d="M83.2,253c10.2-8.2,23.5-2.3,34.9-1.5c3.9,0.3,7.9,0.4,11.5-0.3l9.6,17.2l16.9,29.8l0.5,0.8
				c1,5.8,1,5.7,3,8.8c0.4,0.8,0.1,1.6-0.5,2.5l-62.4-5.1l-8.8-0.8c-2.9,3.1-5.4,5.1-10.8,5.1c-5,0-7.7-3.6-8.8-5.2l-64,5.8
				c-0.5-0.6-1.5-1.3-1-2c0.7-0.7,1.9-2,2.5-4.4c0.3-1.2,0-3.9,0-3.9l25.3-49c0,0,0.3,0.1,0.5,0.2c5.2,1.4,10.9,1.2,16.3,0.3l17-2.9
				C71.6,247.7,78.4,247.9,83.2,253"/>
		</g>
	</g>
	<g>
		<g>
			<defs>
				<rect id="SVGID_3_" x="0.3" y="13.3" width="594" height="175.8"/>
			</defs>
			<clipPath id="SVGID_4_">
				<use xlink:href="#SVGID_3_"  style="overflow:visible;"/>
			</clipPath>
			<path class="st2" d="M82.5,253.8c-0.6,5.7-4.6,45-4.6,45v1c0,0-0.6-0.9-0.8-1.3c-7.5-8.5-18.8-10.2-29-8.3
				c-11.1,2.4-21.6,7.6-33.2,9.2c-2.5,0.2-5.2,0.6-7.9,0l24.4-47.3l0.2-0.2c4.7,0.8,9.8,1.2,14.7,0.3l18.6-3.4
				C71.3,248.4,78.1,248.6,82.5,253.8"/>
		</g>
	</g>
	<g>
		<g>
			<defs>
				<rect id="SVGID_5_" x="0.3" y="13.3" width="594" height="175.8"/>
			</defs>
			<clipPath id="SVGID_6_">
				<use xlink:href="#SVGID_5_"  style="overflow:visible;"/>
			</clipPath>
			<path class="st3" d="M82.5,253.8c-0.6,5.7-4.6,45-4.6,45v1c0,0-0.6-0.9-0.8-1.3c-7.5-8.5-18.8-10.2-29-8.3
				c-11.1,2.4-21.6,7.6-33.2,9.2c-2.5,0.2-5.2,0.6-7.9,0l24.4-47.3l0.2-0.2c4.7,0.8,9.8,1.2,14.7,0.3l18.6-3.4
				C71.3,248.4,78.1,248.6,82.5,253.8z"/>
		</g>
	</g>
	<g>
		<g>
			<defs>
				<rect id="SVGID_7_" x="0.3" y="13.3" width="594" height="175.8"/>
			</defs>
			<clipPath id="SVGID_8_">
				<use xlink:href="#SVGID_7_"  style="overflow:visible;"/>
			</clipPath>
			<path class="st4" d="M119,252.6c3.4,0.3,6.8,0.3,10.2-0.2l2.5,4l23.7,42.5c-0.5,0.9-1.7,0.8-2.5,1.2c-17.8,4.3-32.6-6.4-49.3-8.4
				c-9-0.1-18.2,1.3-25,8.3l0.2-3l4.3-42.4c1-1.2,2.2-2,3.4-2.5c4.4-2.4,9.8-2.2,14.9-1.8L119,252.6z"/>
		</g>
	</g>
	<g>
		<g>
			<defs>
				<rect id="SVGID_9_" x="0.3" y="13.3" width="594" height="175.8"/>
			</defs>
			<clipPath id="SVGID_10_">
				<use xlink:href="#SVGID_9_"  style="overflow:visible;"/>
			</clipPath>
			<path class="st5" d="M119,252.6c3.4,0.3,6.8,0.3,10.2-0.2l2.5,4l23.7,42.5c-0.5,0.9-1.7,0.8-2.5,1.2c-17.8,4.3-32.6-6.4-49.3-8.4
				c-9-0.1-18.2,1.3-25,8.3l0.2-3l4.3-42.4c1-1.2,2.2-2,3.4-2.5c4.4-2.4,9.8-2.2,14.9-1.8L119,252.6z"/>
		</g>
	</g>
</g>
<g>
	<g>
		<g>
			<defs>
				<rect id="SVGID_11_" x="-15" y="-4.7" width="623.3" height="207.7"/>
			</defs>
			<clipPath id="SVGID_12_">
				<use xlink:href="#SVGID_11_"  style="overflow:visible;"/>
			</clipPath>
			<path class="st6" d="M494,67.1h-5.2v3.6h-0.1c-1.4-2.9-4-4.2-7-4.2c-6.7,0-10.7,6-10.7,12.9c0,7.3,3.1,13.5,10.6,13.5
				c2.9,0,5.7-1.7,7.1-4.5h0.1v4c0,4.2-1.9,6.6-6.1,6.6c-2.6,0-5-0.5-5.7-3.8h-5.2c0.4,6,5.9,8,10.6,8c7.4,0,11.6-3.9,11.6-11.5
				L494,67.1L494,67.1z M482.4,88.3c-4.4,0-6.2-4.3-6.2-8.5c0-4.3,1.6-8.9,6.2-8.9c4.5,0,6.4,4.1,6.4,8.5S487,88.3,482.4,88.3
				 M445.7,92.8h5.2V77.6c0-3.8,2.2-6.8,5.8-6.8c3,0,4.5,1.8,4.6,5.8v16.1h5.2V75.1c0-5.8-3.2-8.8-8.4-8.8c-3.1,0-5.9,1.8-7.3,4.6
				l-0.1-0.1V67h-5L445.7,92.8L445.7,92.8z M440.1,67.1h-5.2V82c0,4-1.5,7-5.9,7c-2.8,0-4.5-1.7-4.5-6.2V67.1h-5.2v16.3
				c0,6.7,2.6,10.1,8.8,10.1c2.6,0,5.4-1.7,6.7-4.3h0.1v3.6h5.1V67.1H440.1z M408.3,92.8h5.2V57.3h-5.2V92.8z M402.4,57.3h-5.2v13.1
				H397c-1.6-2.8-4.9-4-7.9-4c-5.1,0-10.3,4.1-10.3,13.4c0,7.7,3.7,13.7,11.1,13.7c2.9,0,6-1.3,7.3-4.2h0.1v3.5h4.9L402.4,57.3
				L402.4,57.3z M384.1,80.2c0-4.6,1.8-9.3,6.6-9.3c4,0,6.6,3.4,6.6,9c0,4.5-2,9.1-6.6,9.1C386.1,89,384.1,84.6,384.1,80.2
				 M353.7,92.8h5.2V77.6c0-3.8,2.2-6.8,5.8-6.8c3,0,4.5,1.8,4.6,5.8v16.1h5.2V75.1c0-5.8-3.2-8.8-8.4-8.8c-3.1,0-5.9,1.8-7.3,4.6
				l-0.1-0.1V67h-4.9v25.8L353.7,92.8L353.7,92.8z M348,73.9c0-5.4-4.8-7.4-9.5-7.4c-5.2,0-10.4,2-10.8,8.6h5.2
				c0.2-2.8,2.3-4.1,5.2-4.1c2.1,0,4.9,0.5,4.9,3.5c0,3.4-3.4,2.9-7.1,3.7c-4.4,0.5-9.1,1.6-9.1,8c0,5,3.9,7.5,8.1,7.5
				c2.8,0,6.2-0.9,8.2-3.1c0.4,2.3,1.9,3.1,4,3.1c0.8,0,2.5-0.3,3.2-0.6v-4c-0.5,0.1-0.9,0.1-1.3,0.1c-0.9,0-1.3-0.5-1.3-2V73.9H348
				z M342.8,84.1c0,3.6-3.6,4.9-5.9,4.9c-1.9,0-4.8-0.7-4.8-3.2c0-2.9,2-3.9,4.3-4.3s4.8-0.4,6.4-1.6V84.1z M301.7,92.8h5.2V77.6
				c0-3.8,2.2-6.8,5.8-6.8c3,0,4.5,1.8,4.6,5.8v16.1h5.2V75.1c0-5.8-3.2-8.8-8.4-8.8c-3.1,0-5.9,1.8-7.1,4.1h0V57.3h-5.2L301.7,92.8
				L301.7,92.8z M275.3,92.8h5.2V77.6c0-3.8,2.2-6.8,5.8-6.8c3,0,4.5,1.8,4.6,5.8v16.1h5.2V75.1c0-5.8-3.2-8.8-8.4-8.8
				c-3.1,0-5.9,1.8-7.1,4.1h-0.1V57.3h-5.2V92.8z M271,75.7c-0.5-6.3-5.1-9.3-10.7-9.3c-7.7,0-11.7,6.1-11.7,13.8
				c0,7.5,4.1,13.3,11.5,13.3c6.1,0,9.8-3.7,10.9-10.4h-5.2c-0.5,3.7-2.6,5.9-5.7,5.9c-4.5,0-6.3-4.5-6.3-8.8c0-7.9,3.8-9.3,6.5-9.3
				c2.9,0,5,1.7,5.4,4.8H271L271,75.7z M244.2,67.1H239V82c0,4-1.5,7-5.9,7c-2.8,0-4.5-1.7-4.5-6.2V67.1h-5.2v16.3
				c0,6.7,2.6,10.1,8.8,10.1c2.6,0,5.4-1.7,6.7-4.3h0.1v3.6h5.1L244.2,67.1L244.2,67.1z M197.5,62.3h9.3c3.1,0,4.8,1.3,4.8,4.9
				c0,3.1-2.1,4.9-4.8,4.9h-9.3V62.3z M191.9,92.8h15c8.5,0,12-4.3,12-9.9c0-4.8-2.2-8.2-6.2-9.1v-0.1c2.9-1.4,4.7-4,4.7-7.5
				c0-6-3.9-8.8-9.7-8.8h-15.9v35.5h0.1V92.8z M197.5,76.7h10.2c3.5,0,5.4,2,5.4,5.4c0,3.6-2,5.7-5.4,5.7h-10.2V76.7z"/>
		</g>
	</g>
	<g>
		<g>
			<defs>
				<rect id="SVGID_13_" x="-15" y="-4.7" width="623.3" height="207.7"/>
			</defs>
			<clipPath id="SVGID_14_">
				<use xlink:href="#SVGID_13_"  style="overflow:visible;"/>
			</clipPath>
			<path class="st7" d="M494,67.1h-5.2v3.6h-0.1c-1.4-2.9-4-4.2-7-4.2c-6.7,0-10.7,6-10.7,12.9c0,7.3,3.1,13.5,10.6,13.5
				c2.9,0,5.7-1.7,7.1-4.5h0.1v4c0,4.2-1.9,6.6-6.1,6.6c-2.6,0-5-0.5-5.7-3.8h-5.2c0.4,6,5.9,8,10.6,8c7.4,0,11.6-3.9,11.6-11.5
				L494,67.1L494,67.1z M482.4,88.3c-4.4,0-6.2-4.3-6.2-8.5c0-4.3,1.6-8.9,6.2-8.9c4.5,0,6.4,4.1,6.4,8.5S487,88.3,482.4,88.3z
				 M445.7,92.8h5.2V77.6c0-3.8,2.2-6.8,5.8-6.8c3,0,4.5,1.8,4.6,5.8v16.1h5.2V75.1c0-5.8-3.2-8.8-8.4-8.8c-3.1,0-5.9,1.8-7.3,4.6
				l-0.1-0.1V67h-5L445.7,92.8L445.7,92.8z M440.1,67.1h-5.2V82c0,4-1.5,7-5.9,7c-2.8,0-4.5-1.7-4.5-6.2V67.1h-5.2v16.3
				c0,6.7,2.6,10.1,8.8,10.1c2.6,0,5.4-1.7,6.7-4.3h0.1v3.6h5.1V67.1H440.1z M408.3,92.8h5.2V57.3h-5.2V92.8z M402.4,57.3h-5.2v13.1
				H397c-1.6-2.8-4.9-4-7.9-4c-5.1,0-10.3,4.1-10.3,13.4c0,7.7,3.7,13.7,11.1,13.7c2.9,0,6-1.3,7.3-4.2h0.1v3.5h4.9L402.4,57.3
				L402.4,57.3z M384.1,80.2c0-4.6,1.8-9.3,6.6-9.3c4,0,6.6,3.4,6.6,9c0,4.5-2,9.1-6.6,9.1C386.1,89,384.1,84.6,384.1,80.2z
				 M353.7,92.8h5.2V77.6c0-3.8,2.2-6.8,5.8-6.8c3,0,4.5,1.8,4.6,5.8v16.1h5.2V75.1c0-5.8-3.2-8.8-8.4-8.8c-3.1,0-5.9,1.8-7.3,4.6
				l-0.1-0.1V67h-4.9v25.8L353.7,92.8L353.7,92.8z M348,73.9c0-5.4-4.8-7.4-9.5-7.4c-5.2,0-10.4,2-10.8,8.6h5.2
				c0.2-2.8,2.3-4.1,5.2-4.1c2.1,0,4.9,0.5,4.9,3.5c0,3.4-3.4,2.9-7.1,3.7c-4.4,0.5-9.1,1.6-9.1,8c0,5,3.9,7.5,8.1,7.5
				c2.8,0,6.2-0.9,8.2-3.1c0.4,2.3,1.9,3.1,4,3.1c0.8,0,2.5-0.3,3.2-0.6v-4c-0.5,0.1-0.9,0.1-1.3,0.1c-0.9,0-1.3-0.5-1.3-2V73.9H348
				z M342.8,84.1c0,3.6-3.6,4.9-5.9,4.9c-1.9,0-4.8-0.7-4.8-3.2c0-2.9,2-3.9,4.3-4.3s4.8-0.4,6.4-1.6V84.1z M301.7,92.8h5.2V77.6
				c0-3.8,2.2-6.8,5.8-6.8c3,0,4.5,1.8,4.6,5.8v16.1h5.2V75.1c0-5.8-3.2-8.8-8.4-8.8c-3.1,0-5.9,1.8-7.1,4.1h0V57.3h-5.2L301.7,92.8
				L301.7,92.8z M275.3,92.8h5.2V77.6c0-3.8,2.2-6.8,5.8-6.8c3,0,4.5,1.8,4.6,5.8v16.1h5.2V75.1c0-5.8-3.2-8.8-8.4-8.8
				c-3.1,0-5.9,1.8-7.1,4.1h-0.1V57.3h-5.2V92.8z M271,75.7c-0.5-6.3-5.1-9.3-10.7-9.3c-7.7,0-11.7,6.1-11.7,13.8
				c0,7.5,4.1,13.3,11.5,13.3c6.1,0,9.8-3.7,10.9-10.4h-5.2c-0.5,3.7-2.6,5.9-5.7,5.9c-4.5,0-6.3-4.5-6.3-8.8c0-7.9,3.8-9.3,6.5-9.3
				c2.9,0,5,1.7,5.4,4.8H271L271,75.7z M244.2,67.1H239V82c0,4-1.5,7-5.9,7c-2.8,0-4.5-1.7-4.5-6.2V67.1h-5.2v16.3
				c0,6.7,2.6,10.1,8.8,10.1c2.6,0,5.4-1.7,6.7-4.3h0.1v3.6h5.1L244.2,67.1L244.2,67.1z M197.5,62.3h9.3c3.1,0,4.8,1.3,4.8,4.9
				c0,3.1-2.1,4.9-4.8,4.9h-9.3V62.3z M191.9,92.8h15c8.5,0,12-4.3,12-9.9c0-4.8-2.2-8.2-6.2-9.1v-0.1c2.9-1.4,4.7-4,4.7-7.5
				c0-6-3.9-8.8-9.7-8.8h-15.9v35.5h0.1V92.8z M197.5,76.7h10.2c3.5,0,5.4,2,5.4,5.4c0,3.6-2,5.7-5.4,5.7h-10.2V76.7z"/>
		</g>
	</g>
	<g>
		<g>
			<defs>
				<rect id="SVGID_15_" x="-15" y="-4.7" width="623.3" height="207.7"/>
			</defs>
			<clipPath id="SVGID_16_">
				<use xlink:href="#SVGID_15_"  style="overflow:visible;"/>
			</clipPath>
			<path class="st8" d="M539.5,146c0.5,7.3,6,10.7,16.9,10.7c8.2,0,17.7-1.3,17.7-10.5c0-5.3-3.1-8.4-12.7-9.5l-6.5-0.7
				c-4.1-0.4-4.7-1.5-4.7-2.9c0-3,3.7-3.2,6.2-3.2c2.7,0,5.9,0.9,6.4,4.1h10.4c-0.6-5.8-3.8-10.5-17-10.5c-7.9,0-15.7,2-15.7,10.4
				c0,5.9,3.5,7.9,9.4,8.8l8.6,1.3c4.5,0.7,5.3,1.4,5.3,3.1c0,2.2-2.5,3.4-6.8,3.4c-4.9,0-6.6-1.8-7-4.4h-10.5L539.5,146L539.5,146z
				 M525.2,155.6h9.1v-30.9h-9.4v15.5c0,5.8-2.9,8.8-8,8.8c-4.3,0-6.4-2.1-6.4-6.4v-17.9h-9.4v20.9c0,9.1,7.4,11.1,12.4,11.1
				c5.5,0,10.1-2.7,11.7-5.3h0.1L525.2,155.6L525.2,155.6L525.2,155.6z M470,134.2c1.4-4.3,3.5-4.6,7.4-4.6c5.4,0,7.4,1.3,7.4,3.7
				c0,2.5-0.9,3-3.9,3.2l-10.1,0.7c-5.8,0.4-11.8,2-11.8,9.5c0,7.2,5.2,10.1,12.8,10.1c4.2,0,10.3-0.9,13.4-4.4
				c0.1,1,0.3,2.2,0.6,3.2h9.4c-0.6-1.6-1-3.6-1-6.2V134c0-5.8-2.9-10.5-16.3-10.5c-7.7,0-15.8,1-17,10.6L470,134.2L470,134.2z
				 M485.2,143.1c0,5.2-5.3,7.6-10.1,7.6c-3.6,0-6-1.6-6-4.3s1.7-3.8,5-4.1l5.4-0.5c1.9-0.2,3.8-0.4,5.5-1.4L485.2,143.1
				L485.2,143.1z M420.7,155.6h9.4v-15c0-6.6,3.7-8.9,8.1-8.9c4.2,0,6.3,2.1,6.3,6.4v17.5h9.4V135c0-9.1-7.4-11.1-12.4-11.1
				c-5.5,0-10.1,2.7-11.4,5.3H430v-15.5h-9.4v41.9H420.7z M399.4,124.7h-6v6.8h6v15.6c0,5.5,0.8,9.2,9.8,9.2c2.1,0,5.7-0.3,7.4-0.6
				v-6.8c-1.5,0.1-2.9,0.2-4.6,0.2c-2.5,0-3.1-0.8-3.1-3.2v-14.5h7.6v-6.8H409v-9.5h-9.4v9.6C399.6,124.7,399.4,124.7,399.4,124.7z
				 M365.4,134.2c1.4-4.3,3.5-4.6,7.4-4.6c5.4,0,7.4,1.3,7.4,3.7c0,2.5-0.9,3-3.9,3.2l-10.1,0.7c-5.8,0.4-11.8,2-11.8,9.5
				c0,7.2,5.2,10.1,12.8,10.1c4.2,0,10.3-0.9,13.4-4.4c0.1,1,0.3,2.2,0.6,3.2h9.4c-0.6-1.6-1-3.6-1-6.2V134
				c0-5.8-2.9-10.5-16.3-10.5c-7.7,0-15.8,1-17,10.6L365.4,134.2L365.4,134.2z M380.5,143.1c0,5.2-5.3,7.6-10.1,7.6
				c-3.6,0-6-1.6-6-4.3s1.7-3.8,5-4.1l5.4-0.5c1.9-0.2,3.8-0.4,5.5-1.4L380.5,143.1L380.5,143.1z M310.4,155.6h10.4v-15.1h12.9
				c3.2,0,5.5,1.5,5.5,7.2c0,4.3,0.1,6,1,7.9h11.3c-1.8-2.1-2-6.9-2-8.9c0-4.1-0.7-10.3-5.2-11v-0.1c4.3-1.7,6.2-4.9,6.2-9.9
				c0-4.2-1.8-11.2-12.4-11.2h-27.7L310.4,155.6L310.4,155.6z M320.8,122.2H334c2.5,0,5.5,1,5.5,5.1c0,3.9-2.7,5.2-5,5.2h-13.7
				V122.2z M270.9,155.6h9v-20.9c0-8.2-5.3-10.8-10.9-10.8c-5,0-8.8,2.1-11.3,5.9c-1.4-3.6-4.3-5.9-9.4-5.9c-5.2,0-9.5,2.7-11.2,5.3
				H237v-4.5h-8.7v30.9h9v-16.8c0-4.8,3-7.1,6.9-7.1c2.5,0,5.4,1.2,5.4,5.3v18.5h9v-16.8c0-4.8,3-7.1,6.8-7.1c2.6,0,5.5,1.2,5.5,5.3
				v18.5h0V155.6z M199.2,134.2c1.3-4.3,3.2-4.6,7.1-4.6c5.2,0,7,1.3,7,3.7c0,2.5-0.9,3-3.7,3.2l-9.5,0.7c-5.4,0.4-11.3,2-11.3,9.5
				c0,7.2,5,10.1,12.1,10.1c4.1,0,9.7-0.9,12.9-4.4c0,1,0.3,2.2,0.6,3.2h9c-0.6-1.6-1-3.6-1-6.2V134c0-5.8-2.7-10.5-15.6-10.5
				c-7.3,0-15.2,1-16.2,10.6L199.2,134.2L199.2,134.2z M213.7,143.1c0,5.2-5,7.6-9.6,7.6c-3.4,0-5.7-1.6-5.7-4.3s1.6-3.8,4.7-4.1
				l5.2-0.5c1.8-0.2,3.7-0.4,5.3-1.4L213.7,143.1L213.7,143.1z"/>
		</g>
	</g>
</g>
<g>
	<g>
		<g>
			<defs>
				<rect id="SVGID_17_" x="0.4" y="108" width="168" height="79.8"/>
			</defs>
			<clipPath id="SVGID_18_">
				<use xlink:href="#SVGID_17_"  style="overflow:visible;"/>
			</clipPath>
			<path class="st9" d="M83.3,122.9c10.2-9.2,23.5-2.6,34.9-1.6c3.9,0.3,7.9,0.5,11.5-0.4l9.6,19.4l16.9,33.8l0.5,0.9
				c1,6.6,1,6.4,3,9.9c0.4,0.9,0.1,1.8-0.5,2.8L96.8,182l-8.8-0.9c-2.9,3.6-5.4,5.9-10.8,5.8c-5,0-7.7-4.1-8.8-6l-64,6.5
				c-0.5-0.7-1.5-1.4-1-2.2c0.7-0.8,1.9-2.2,2.5-4.9c0.3-1.4,0-4.4,0-4.4l25.3-55.5c0,0,0.3,0.2,0.5,0.2c5.2,1.6,10.9,1.4,16.3,0.3
				l17-3.2C71.7,116.9,78.5,117.1,83.3,122.9"/>
		</g>
	</g>
	<g>
		<g>
			<defs>
				<rect id="SVGID_19_" x="0.4" y="108" width="168" height="79.8"/>
			</defs>
			<clipPath id="SVGID_20_">
				<use xlink:href="#SVGID_19_"  style="overflow:visible;"/>
			</clipPath>
			<path class="st10" d="M82.6,123.7c-0.6,6.4-4.6,50.9-4.6,50.9v1.3c0,0-0.6-1-0.8-1.4c-7.5-9.5-18.8-11.4-29-9.4
				c-11.1,2.7-21.6,8.6-33.2,10.4c-2.5,0.2-5.2,0.7-7.9,0L31.5,122l0.2-0.3c4.7,0.9,9.8,1.4,14.7,0.4l18.6-3.8
				C71.4,117.6,78.2,118,82.6,123.7"/>
		</g>
	</g>
	<g>
		<g>
			<defs>
				<rect id="SVGID_21_" x="0.4" y="108" width="168" height="79.8"/>
			</defs>
			<clipPath id="SVGID_22_">
				<use xlink:href="#SVGID_21_"  style="overflow:visible;"/>
			</clipPath>
			<path class="st11" d="M82.6,123.7c-0.6,6.4-4.6,50.9-4.6,50.9v1.3c0,0-0.6-1-0.8-1.4c-7.5-9.5-18.8-11.4-29-9.4
				c-11.1,2.7-21.6,8.6-33.2,10.4c-2.5,0.2-5.2,0.7-7.9,0L31.5,122l0.2-0.3c4.7,0.9,9.8,1.4,14.7,0.4l18.6-3.8
				C71.4,117.6,78.2,118,82.6,123.7z"/>
		</g>
	</g>
	<g>
		<g>
			<defs>
				<rect id="SVGID_23_" x="0.4" y="108" width="168" height="79.8"/>
			</defs>
			<clipPath id="SVGID_24_">
				<use xlink:href="#SVGID_23_"  style="overflow:visible;"/>
			</clipPath>
			<path class="st12" d="M119.1,122.4c3.4,0.3,6.8,0.3,10.2-0.2l2.5,4.5l23.7,48.2c-0.5,1-1.7,0.9-2.5,1.4
				c-17.8,4.8-32.6-7.2-49.3-9.4c-9-0.1-18.2,1.5-25,9.3l0.2-3.5l4.3-48c1-1.3,2.2-2.3,3.4-2.8c4.4-2.7,9.8-2.4,14.9-2L119.1,122.4z
				"/>
		</g>
	</g>
	<g>
		<g>
			<defs>
				<rect id="SVGID_25_" x="0.4" y="108" width="168" height="79.8"/>
			</defs>
			<clipPath id="SVGID_26_">
				<use xlink:href="#SVGID_25_"  style="overflow:visible;"/>
			</clipPath>
			<path class="st13" d="M119.1,122.4c3.4,0.3,6.8,0.3,10.2-0.2l2.5,4.5l23.7,48.2c-0.5,1-1.7,0.9-2.5,1.4
				c-17.8,4.8-32.6-7.2-49.3-9.4c-9-0.1-18.2,1.5-25,9.3l0.2-3.5l4.3-48c1-1.3,2.2-2.3,3.4-2.8c4.4-2.7,9.8-2.4,14.9-2L119.1,122.4z
				"/>
		</g>
	</g>
</g>
</svg>
