<svg id="Layer_1" xmlns="http://www.w3.org/2000/svg" viewBox="0 0 493 80"><style>.st0{fill:#025e43}.st1{fill:#fff}</style><path class="st0" d="M0 0h243v80H0z"/><path class="st1" d="M83.7 54.4c-1.9 2.1-5.1 3.9-9.8 3.9-4.7 0-7.8-1.8-9.7-3.9-2.8-3-3.6-6.2-3.6-11.9s.7-9.1 3.6-12c1.9-2.1 5.1-3.9 9.7-3.9 4.7 0 7.9 1.8 9.8 3.9 2.8 3 3.6 6.3 3.6 12-.1 5.7-.8 8.9-3.6 11.9zm-6.1-19.3c-.9-.9-2.1-1.4-3.7-1.4s-2.7.5-3.6 1.4c-1.6 1.6-1.8 4.2-1.8 7.4s.2 5.7 1.8 7.3c.9.9 2.1 1.4 3.6 1.4 1.6 0 2.8-.5 3.7-1.4 1.6-1.6 1.8-4.1 1.8-7.3s-.2-5.8-1.8-7.4zm52.2 22.8v-19c0-4.3-2.7-4.5-5.2-4.5-2.4 0-5.3.2-5.3 4.3v19.2h-7.9v-19c0-4.3-2.7-4.5-5.2-4.5s-5.3.2-5.3 4.5v19H93V27.6h7.7v2.9c2.1-2.1 5-3.3 7.9-3.3 3.5 0 6.3 1.3 8.3 4 2.7-2.8 5.5-4 9.4-4 3.1 0 6 1 7.7 2.8 2.5 2.5 3.4 5.5 3.4 8.9v18.9h-7.6zm31.9 0v-2.7c-2.1 2.1-4.1 3-7.7 3-3.6 0-6.2-.9-8-2.8-1.7-1.8-2.6-4.3-2.6-7.1 0-5 3.4-9.1 10.8-9.1h7.4v-1.6c0-3.4-1.7-4.4-5.9-4.4-3 0-4.4.7-6 2.6l-5-4.9c3.1-3.4 6.1-4.4 11.4-4.4 8.8 0 13.4 3.7 13.4 11.1v20.2h-7.8zm-.2-13.3h-6.2c-2.8 0-4.4 1.3-4.4 3.6 0 2.2 1.5 3.6 4.5 3.6 2.2 0 3.6-.2 5-1.5.8-.8 1.1-2.1 1.1-4v-1.7zM181 23c-2.7 0-5-2.2-5-5s2.2-4.9 5-4.9 4.9 2.2 4.9 4.9-2.1 5-4.9 5zm-3.9 34.9V27.6h7.9v30.3h-7.9zm33.7 0v-19c0-4.3-2.7-5.7-5.2-5.7s-5.3 1.5-5.3 5.7v19h-7.9V27.6h7.7v2.9c2.1-2.2 5-3.3 7.9-3.3 3.1 0 5.7 1 7.4 2.8 2.5 2.5 3.2 4.3 3.2 7.7v20.1h-7.8zM55.3 36.2c0 6.5.5 12.7-4.3 17.6-2.8 2.8-6.9 4.1-11.4 4.1H24.1V33.6h8.4v16.8h6.3c2.9 0 4.8-.9 6.3-2.7 1.6-1.9 1.8-5 1.8-11.5s-.2-9.4-1.8-11.4c-.1-.1-.4-.4-.4-.5v-9c2.3.6 4.6 2 6.3 3.6 4.8 4.9 4.3 10.8 4.3 17.3z"/><path class="st1" d="M32.4 22.2h5.7v-7.5h-14v12.9h8.3zM249 0h244v80H249z"/><path class="st0" d="M298.5 33.6v7.9h-17V58h-8.4V33.6h25.4zM295 14.7h-21.9v12.9h8.4v-5.4h17v-7.5zM320.7 58v-2.7c-2.1 2.1-4.1 3-7.7 3-3.6 0-6.2-.9-8.1-2.8-1.7-1.8-2.6-4.3-2.6-7.1 0-5 3.5-9.1 10.8-9.1h7.4v-1c0-3.5-1.7-5-5.9-5-3 0-4.4.7-6.1 2.6l-5-4.9c3.1-3.4 6.1-4.4 11.4-4.4 8.8 0 13.4 3.8 13.4 11.1V58h-7.6zm-.2-13.3h-6.2c-2.8 0-4.4 1.3-4.4 3.6 0 2.2 1.5 3.6 4.5 3.6 2.2 0 3.6-.2 5-1.5.8-.8 1.2-2.1 1.2-4v-1.7zM348 58c-6.3 0-14.1-2.9-14.1-15.6s7.8-15.7 14.1-15.7c4.4 0 7.6 1.3 10.4 4.2l-5.3 5.3c-1.6-1.8-3-2.5-5.1-2.5-1.9 0-3.3.7-4.5 2.1-1.2 1.5-1.8 3.2-1.8 6.6s.5 5 1.8 6.5c1.2 1.4 2.6 2.1 4.5 2.1 2.1 0 3.5-.7 5.1-2.5l5.3 5.3c-2.8 2.8-6.1 4.2-10.4 4.2zm26.4-.4c-6.4 0-9.1-4.5-9.1-9v-15H362v-6h3.3v-10h7.9v10h5.6v6h-5.6V48c0 1.8.8 2.8 2.7 2.8h2.8v6.7h-4.3zm31.9-3.5c-1.9 2.1-5.1 3.9-9.8 3.9-4.7 0-7.8-1.8-9.8-3.9-2.8-3-3.6-5.9-3.6-11.6 0-5.7.7-9 3.6-12 1.9-2.1 5.1-3.9 9.8-3.9 4.7 0 7.9 1.8 9.8 3.9 2.8 3 3.6 6.3 3.6 12s-.8 8.6-3.6 11.6zm-6.1-19c-.9-.9-2.1-1.4-3.7-1.4s-2.7.5-3.6 1.4c-1.6 1.6-1.8 4.1-1.8 7.4s.2 5.4 1.8 7c.9.9 2.1 1.4 3.6 1.4 1.6 0 2.8-.5 3.7-1.4 1.6-1.6 1.8-3.7 1.8-7s-.2-5.8-1.8-7.4zm32.6 1.1c-1.2-1.2-2.2-1.9-4.2-1.9-2.4 0-5.1 1.8-5.1 5.8v17.4h-7.9v-30h7.7v3c1.5-1.8 4.5-3.4 7.9-3.4 3.1 0 5.3.8 7.5 3l-5.9 6.1zm22.6 27.3c-.7 1.8-1.4 3.1-2.4 4.1-1.8 1.8-4.2 2.4-6.8 2.4h-3.1v-7.1h1.8c2.2 0 2.8-.5 3.9-2.8l1.6-4.7-10.2-27.7h8.3l6 17.9 5.9-17.9h8.3l-13.3 35.8z"/></svg>