<svg xmlns="http://www.w3.org/2000/svg" viewBox="0 0 38 38"><symbol xmlns="http://www.w3.org/2000/svg" xmlns:xlink="http://www.w3.org/1999/xlink" viewBox="0 0 38 38" id="ico-eTower"><defs><style>#ico-eTower .cls-1{fill:none;}</style><symbol id="ico-eTower_ico-eTower" data-name="ico-eTower" viewBox="0 0 20 20"><g id="ico-eTower__编组_6" data-name=" 编组 6"><path id="ico-eTower__路径_20" data-name=" 路径 20" d="M16.11,1.81H3.89a.36.36,0,0,1-.34-.37V1.37A.36.36,0,0,1,3.89,1H16.11a.36.36,0,0,1,.34.37v.07A.36.36,0,0,1,16.11,1.81Z"/><path id="ico-eTower__复合路径_14" data-name=" 复合路径 14" d="M4.49,8.72v.71l2-1.2L4.7,2.6c-.12-.39.5-.56.62-.17l.37,1.21L10,5.19l4.31-1.55.37-1.21c.12-.39.74-.23.62.17L13.56,8.23l1.95,1.23V8.72a.32.32,0,0,1,.64,0V9.84a.32.32,0,0,1-.32.32H13l-.86,2.78,1.62.79V13a.32.32,0,0,1,.64,0v1.14a.32.32,0,0,1-.31.33H11.64l-1.33,4.31a.32.32,0,0,1-.39.23.33.33,0,0,1-.23-.23L8.36,14.46H6a.32.32,0,0,1-.32-.32h0V13a.32.32,0,0,1,.64,0v.79L7.91,13,7,10.16H4.17a.32.32,0,0,1-.32-.32V8.72a.32.32,0,1,1,.64,0ZM6.77,7.15,10,8.53l3.22-1.37.12-.39L10,5.57,6.66,6.77Zm6.31.45L10.45,8.72l1.87.8h.17ZM10,8.92l-1.41.6h2.83Zm-2.32.6,1.87-.8L6.91,7.6,7.5,9.52ZM5.82,4.07l.73,2.36,2.92-1Zm4.7,1.31,2.92,1L14.17,4Zm4.4,4.14-1.47-.93-.29.93Zm-6.09,4.3h0l2.57-1.16L8,11Zm.9,0h1.44l.23-.76Zm3.36,0L12,13.29l-.16.53ZM10,17.6l1-3.14H9ZM7,13.82H8.16L8,13.34Zm.81-3.26,3.8,1.79.67-2.19H7.7Zm-1.28-2L5,9.52H6.8Z"/></g></symbol></defs><use id="ico-eTower_ico-eTower-3-2" data-name="ico-eTower-3" width="20" height="20" transform="matrix(1.9, 0, 0, -1.9, 0, 38)" xlink:href="#ico-eTower_ico-eTower"/></symbol><use xlink:href="#ico-eTower" xmlns:xlink="http://www.w3.org/1999/xlink"/></svg>