<svg xmlns="http://www.w3.org/2000/svg" viewBox="0 0 62 62"><symbol viewBox="0 0 62 62" xmlns="http://www.w3.org/2000/svg" id="flow-hy">
<g id="flow-hy_#000000ff">
<path fill="#000000" opacity="1.00" d=" M 30.62 0.00 L 31.36 0.00 C 41.57 6.77 51.90 13.35 62.00 20.28 L 62.00 30.00 C 60.73 29.74 59.47 29.46 58.21 29.16 C 58.35 40.10 58.36 51.05 58.20 62.00 L 3.85 62.00 C 3.58 51.04 3.68 40.08 3.79 29.12 C 2.54 29.49 1.28 29.82 0.00 30.09 L 0.00 20.30 C 10.07 13.33 20.43 6.79 30.62 0.00 M 2.45 21.54 C 2.46 23.21 2.47 24.89 2.48 26.57 C 12.00 20.31 21.44 13.93 31.00 7.74 C 40.57 13.93 50.01 20.33 59.55 26.58 C 59.53 24.84 59.50 23.11 59.46 21.38 C 49.91 15.27 40.51 8.91 31.00 2.73 C 21.48 8.99 11.95 15.23 2.45 21.54 M 6.17 27.12 C 6.18 37.92 6.16 48.73 6.19 59.53 C 14.87 59.53 23.55 59.55 32.23 59.52 C 32.37 52.52 31.96 45.50 32.45 38.51 C 37.76 38.56 43.08 38.16 48.37 38.75 C 48.34 45.68 48.35 52.61 48.36 59.54 C 50.85 59.53 53.34 59.54 55.82 59.53 C 55.83 48.73 55.82 37.92 55.83 27.12 C 47.57 21.61 39.29 16.14 31.00 10.66 C 22.72 16.14 14.44 21.61 6.17 27.12 M 34.71 40.94 C 34.70 47.14 34.71 53.33 34.71 59.52 C 38.43 59.54 42.15 59.54 45.87 59.53 C 45.89 53.34 45.88 47.14 45.88 40.94 C 42.16 40.93 38.43 40.93 34.71 40.94 Z"/>
<path fill="#000000" opacity="1.00" d=" M 13.07 27.04 C 15.14 25.75 17.73 26.43 20.04 26.23 C 22.34 26.46 25.59 25.44 26.93 27.98 C 27.18 31.66 27.18 35.36 26.93 39.04 C 26.34 40.01 25.30 40.76 24.11 40.64 C 20.37 40.69 16.57 40.98 12.89 40.14 C 12.69 35.79 12.19 31.33 13.07 27.04 M 17.12 30.74 C 17.12 32.56 17.12 34.38 17.12 36.20 C 18.94 36.21 20.77 36.22 22.59 36.24 C 22.59 34.39 22.60 32.53 22.61 30.67 C 20.78 30.71 18.95 30.72 17.12 30.74 Z"/>
</g>
</symbol><use xlink:href="#flow-hy" xmlns:xlink="http://www.w3.org/1999/xlink"/></svg>