<svg id="Layer_3" enable-background="new 0 0 64 64" height="512" viewBox="0 0 64 64" width="512" xmlns="http://www.w3.org/2000/svg"><g><path d="m63 39c0-1.654-1.346-3-3-3h-4c-1.654 0-3 1.346-3 3 0 1.302.839 2.402 2 2.816v.184c0 .552-.449 1-1 1h-2v-6.142c1.72-.447 3-1.999 3-3.858 0-2.002-1.483-3.649-3.405-3.94 1.349-3.641-1.03-9.85-6.108-15.908l1.668-1.668c.406.193.843.3 1.284.3.769 0 1.537-.292 2.122-.877 1.169-1.17 1.169-3.073 0-4.243l-4.243-4.243c-1.17-1.17-3.073-1.168-4.243 0-.92.921-1.104 2.291-.576 3.405l-1.668 1.668c-7.105-5.954-14.424-8.202-17.554-5.071-.391.391-.391 1.023 0 1.414l25.163 25.163h-34.44c-2.206 0-4 1.794-4 4 0 1.859 1.28 3.411 3 3.858v6.142h-2c-.551 0-1-.448-1-1v-.184c1.161-.414 2-1.514 2-2.816 0-1.654-1.346-3-3-3h-4c-1.654 0-3 1.346-3 3 0 1.302.839 2.402 2 2.816v1.184c0 3.309 2.691 6 6 6h3v7c0 3.859 3.14 7 7 7h26c3.86 0 7-3.141 7-7v-7h3c3.309 0 6-2.691 6-6v-1.184c1.161-.414 2-1.514 2-2.816zm-19.51-35.163c.389-.39 1.024-.391 1.415 0l4.242 4.243c.39.39.39 1.024 0 1.414-.391.391-1.026.39-1.415 0l-4.242-4.243c-.39-.39-.39-1.024 0-1.414zm-.707 3.536 2.829 2.829-1.446 1.445c-.445-.485-.905-.967-1.383-1.445s-.961-.938-1.445-1.383zm-1.414 4.242c5.521 5.521 9.911 13.329 8.351 16.836l-25.188-25.187c3.509-1.559 11.316 2.83 16.837 8.351zm-30.369 21.385c0-1.103.897-2 2-2h38c1.103 0 2 .897 2 2s-.897 2-2 2h-38c-1.103 0-2-.897-2-2zm-7 5h4c.551 0 1 .448 1 1s-.449 1-1 1h-4c-.551 0-1-.448-1-1s.449-1 1-1zm5 9c-2.206 0-4-1.794-4-4v-1h2c0 1.654 1.346 3 3 3h2v2zm36 14h-26c-2.757 0-5-2.243-5-5v-19h36v19c0 2.757-2.243 5-5 5zm10-14h-3v-2h2c1.654 0 3-1.346 3-3h2v1c0 2.206-1.794 4-4 4zm5-7h-4c-.551 0-1-.448-1-1s.449-1 1-1h4c.551 0 1 .448 1 1s-.449 1-1 1z"/><path d="m47 56c0 1.103-.897 2-2 2v2c2.206 0 4-1.794 4-4v-14h-2z"/><path d="m17.232 20.646c.496.496.768 1.154.768 1.854s-.272 1.358-.768 1.854l-1.939 1.939 1.414 1.414 1.939-1.939c.874-.873 1.354-2.034 1.354-3.268s-.48-2.395-1.354-3.268l-.879-.879c-.495-.495-.767-1.153-.767-1.853s.272-1.358.768-1.854l1.939-1.939-1.414-1.414-1.939 1.939c-.874.873-1.354 2.034-1.354 3.268s.48 2.395 1.354 3.268z"/><path d="m28.707 12.707-1.414-1.414-1.939 1.939c-.874.873-1.354 2.034-1.354 3.268s.48 2.395 1.354 3.268l.879.879c.495.495.767 1.153.767 1.853s-.272 1.358-.768 1.854l-1.939 1.939 1.414 1.414 1.939-1.939c.874-.873 1.354-2.034 1.354-3.268s-.48-2.395-1.354-3.268l-.879-.879c-.495-.495-.767-1.153-.767-1.853s.272-1.358.768-1.854z"/></g></svg>