<?xml version="1.0" encoding="UTF-8" standalone="no"?>
<svg
   xmlns:dc="http://purl.org/dc/elements/1.1/"
   xmlns:cc="http://creativecommons.org/ns#"
   xmlns:rdf="http://www.w3.org/1999/02/22-rdf-syntax-ns#"
   xmlns:svg="http://www.w3.org/2000/svg"
   xmlns="http://www.w3.org/2000/svg"
   width="163.03441mm"
   height="163.03441mm"
   viewBox="0 0 163.03441 163.03441"
   version="1.1"
   id="svg4520">
  <defs
     id="defs4514" />
  <metadata
     id="metadata4517">
    <rdf:RDF>
      <cc:Work
         rdf:about="">
        <dc:format>image/svg+xml</dc:format>
        <dc:type
           rdf:resource="http://purl.org/dc/dcmitype/StillImage" />
        <dc:title></dc:title>
      </cc:Work>
    </rdf:RDF>
  </metadata>
  <g
     id="layer1"
     transform="translate(-22.450638,-53.250191)">
    <circle
       style="opacity:1;fill:#000000;fill-opacity:1;stroke:none;stroke-width:2;stroke-linecap:round;stroke-linejoin:round;stroke-miterlimit:4;stroke-dasharray:none;stroke-dashoffset:0;stroke-opacity:1"
       id="path5117-9"
       cx="103.96784"
       cy="134.76738"
       r="81.517204" />
    <path
       style="fill:none;fill-rule:evenodd;stroke:none;stroke-width:3.4395833;stroke-linecap:butt;stroke-linejoin:miter;stroke-miterlimit:4;stroke-dasharray:none;stroke-opacity:1"
       d="m 103.85544,59.117284 v 0.008 c -3.53444,0.0472 -23.307216,0.84906 -26.052115,13.048614 0,0 -13.726707,1.673987 -14.7311,10.713524 -1.004393,9.039544 10.378731,7.700354 10.378731,7.700354 l 2.678382,16.339984 c 0,0 10.568411,-4.28995 28.091632,-4.34975 17.52361,0.0597 28.09228,4.34975 28.09228,4.34975 l 2.67838,-16.339984 c 0,0 11.38312,1.33919 10.37873,-7.700354 -1.00439,-9.039537 -14.7311,-10.713524 -14.7311,-10.713524 -2.74491,-12.199554 -22.51767,-13.001374 -26.0521,-13.048614 v -0.008 c 0,0 -0.27574,0.004 -0.36619,0.004 -0.0901,9e-5 -0.36553,-0.004 -0.36553,-0.004 z"
       id="path5384-1" />
    <path
       style="fill:none;fill-rule:evenodd;stroke:none;stroke-width:3.4395833;stroke-linecap:butt;stroke-linejoin:miter;stroke-miterlimit:4;stroke-dasharray:none;stroke-opacity:1"
       d="m 74.744792,98.827083 c 0,0 13.172281,-5.820837 29.567188,-5.820837 14.54281,0 29.56718,5.820837 29.56718,5.820837"
       id="path5402-9" />
    <path
       id="path6090"
       d="m 30.451452,119.71279 c 0.07601,0.7314 2.905418,2.4526 3.436922,2.15377 0.331309,-0.18628 1.097465,0.1643 1.601352,0.0575 0.07607,0.0905 0.158636,0.18031 0.237975,0.27043 -0.06714,0.084 -0.134889,0.16788 -0.20363,0.26033 -0.256513,0.34485 0.452502,0.23217 0.72514,0.30681 0.07435,0.0775 0.146348,0.1554 0.222613,0.23258 -0.144798,0.0814 -0.305747,0.16225 -0.508484,0.24172 -0.701296,0.27495 -2.231076,-0.29835 -2.76638,0.12674 -0.09248,0.0735 -0.133596,0.14644 -0.132525,0.21774 0.01026,0.68916 3.998523,1.22853 4.316649,0.72465 0.05016,-0.0795 0.153702,-0.13517 0.28211,-0.18139 0.197525,0.1767 0.397995,0.35236 0.601158,0.52617 -0.01089,0.0139 -0.02079,0.0255 -0.03115,0.0397 -0.178103,0.23944 0.113202,0.25597 0.398526,0.26932 0.14412,0.12052 0.289009,0.23828 0.43458,0.35715 -0.09737,0.0473 -0.201617,0.0945 -0.320714,0.1412 -0.701307,0.27494 -2.230477,-0.29884 -2.765771,0.12624 -0.09248,0.0735 -0.134198,0.14643 -0.133137,0.21773 0.01026,0.68916 3.998504,1.22904 4.316663,0.72516 0.04235,-0.0673 0.124378,-0.11706 0.225395,-0.15918 0.351529,0.27272 0.700983,0.54201 1.04368,0.80268 -0.02135,0.0277 -0.04214,0.0526 -0.06372,0.0813 -0.207762,0.2793 0.221215,0.25742 0.536864,0.2784 0.07185,0.0546 0.144044,0.10934 0.215061,0.16325 -0.02736,0.0115 -0.05197,0.0234 -0.08143,0.0349 -0.701339,0.27495 -2.230495,-0.29833 -2.765777,0.12675 -0.09248,0.0735 -0.134192,0.14594 -0.13313,0.21723 0.01026,0.68916 3.998504,1.22903 4.31664,0.72514 0.01092,-0.0163 0.02973,-0.0289 0.04412,-0.0435 0.382914,0.29992 0.744361,0.58971 1.063031,0.86167 0.0872,0.0745 0.179793,0.14453 0.270639,0.21624 -0.05557,0.0245 -0.103857,0.0495 -0.16591,0.0738 -0.701307,0.27495 -2.231079,-0.29885 -2.766383,0.12623 -0.987232,0.78401 3.832476,1.4984 4.183522,0.94239 0.04192,-0.0664 0.121451,-0.11649 0.220503,-0.15874 0.466704,0.26693 0.937803,0.50382 1.390603,0.71104 -0.154629,0.0896 -0.332315,0.1779 -0.554776,0.26512 -0.701307,0.27494 -2.231089,-0.29885 -2.766373,0.12623 -0.987232,0.78399 3.832468,1.4989 4.183515,0.94289 0.164609,-0.26073 0.875739,-0.27848 1.299389,-0.48325 0.33007,0.10983 0.449288,0.14284 0.540932,0.16961 -1.551561,3.02848 -1.292403,6.50384 0.177166,8.15703 0.996004,1.12046 1.59971,1.5823 1.937112,1.77969 -0.0025,-1.86271 0.24401,-4.57986 1.384149,-7.26483 0,0 -0.972081,3.47499 -0.897596,7.54751 0.395221,0.38509 5.332531,5.18491 6.43828,5.65699 l 0.551575,0.23599 c 0.147642,-1.61655 0.444386,-3.35273 1.001844,-5.05074 0,0 -0.492169,2.21689 -0.640204,5.20514 l 0.237443,0.10141 c 0,0 4.715111,4.21946 6.734675,4.72383 0.488383,0.12197 0.923204,0.3766 1.323431,0.697 0.138196,-1.25736 0.474372,-2.52575 1.195115,-3.46964 0,0 -0.881441,1.11764 -1.015425,3.62182 1.162857,1.01264 2.035691,2.53674 3.074797,2.89431 1.440512,0.49573 3.59245,1.83202 3.59245,1.83202 0,0 3.142149,2.89198 5.454774,3.16363 2.312637,0.27164 4.476657,0.77836 5.64181,0.32155 1.165176,-0.45681 0.787946,-4.25591 0.235468,-6.04242 -0.497732,-1.60946 -1.99065,-2.88686 -2.294886,-3.13599 -1.387853,0.25062 -2.817294,0.70606 -3.796484,1.53153 0,0 1.010058,-1.18352 3.566348,-1.91672 -0.274904,-0.71112 -1.571564,-3.99919 -2.836531,-5.92477 -1.330778,-2.0257 -5.812295,-5.9618 -6.362827,-6.44245 -3.423654,1.46919 -5.156223,3.18323 -5.156223,3.18323 1.307142,-1.42647 3.015839,-2.68651 4.762206,-3.75448 -0.433552,-0.87563 -1.777742,-3.47056 -3.200888,-4.87121 -1.712341,-1.68528 -4.856426,-4.45899 -4.856426,-4.45899 0,0 -0.101932,-0.11481 -0.138582,-0.15708 -2.790405,1.06829 -4.856464,2.76482 -4.856464,2.76482 1.15513,-1.31728 2.843368,-2.34263 4.535252,-3.12278 -0.731144,-0.79909 -2.233644,-2.3449 -3.683193,-3.22196 -2.008943,-1.21552 -6.079985,-0.091 -8.120793,0.82684 -0.104343,0.0469 -0.204571,0.0996 -0.303736,0.15298 0.251344,-0.36132 0.382428,-0.86361 0.710408,-0.9636 0.719375,-0.21932 -0.474737,-4.1994 -1.588521,-4.40266 -0.03724,0.44745 -0.108758,0.87334 -0.20809,1.21541 0.333839,0.67108 0.802998,1.43151 0.537826,1.77185 -0.147121,0.18881 -0.290031,0.33714 -0.43154,0.4646 -0.220555,-0.43473 -0.478773,-0.88994 -0.77825,-1.34501 0.0701,-0.0836 0.148157,-0.14846 0.243448,-0.17747 0.172797,-0.0527 0.317081,-0.33049 0.428516,-0.71397 -0.250104,-0.50276 -0.426478,-0.95696 -0.150253,-1.13948 0.11675,-0.0772 0.237092,-0.0981 0.358343,-0.0759 0.113903,-1.3665 -0.08853,-2.87657 -0.7905,-2.41273 -0.644922,0.4262 -0.640436,2.33092 -1.104281,2.92621 -0.04108,0.0527 -0.08125,0.0934 -0.121562,0.14016 -0.08494,-0.0912 -0.16719,-0.18395 -0.25634,-0.27221 -0.325698,-0.32247 -0.669908,-0.68584 -1.024989,-1.06979 0.02153,-0.0111 0.0407,-0.0275 0.06418,-0.0341 0.722914,-0.22042 1.398965,-4.62216 0.468776,-4.72159 -0.0962,-0.01 -0.199908,0.0176 -0.31138,0.0912 -0.644953,0.42619 -0.952349,2.61923 -1.416173,3.21451 -0.01952,0.0251 -0.03812,0.0459 -0.0574,0.0688 -0.06357,-0.071 -0.128582,-0.14325 -0.192859,-0.21509 0.01274,-0.28688 0.09948,-0.67022 -0.305312,-0.51976 -0.042,0.0156 -0.07756,0.0308 -0.117717,0.0463 -0.307302,-0.34262 -0.625771,-0.69241 -0.948171,-1.04455 0.07012,-0.0854 0.148249,-0.15249 0.244732,-0.18195 0.722902,-0.22041 1.109097,-2.36353 0.178929,-2.46297 1.168068,-0.85369 -0.172413,-2.18795 -0.09985,-2.66828 -0.648007,1.4528 -0.591907,2.86725 -1.337859,3.71533 -0.07883,0.1011 -0.155948,0.1885 -0.232572,0.26992 -0.14155,-0.14661 -0.28209,-0.29225 -0.426025,-0.43777 0.0194,-0.25858 0.03552,-0.5229 -0.311497,-0.39394 -0.02051,0.007 -0.0385,0.0148 -0.05851,0.0227 -0.208219,-0.20564 -0.418861,-0.40897 -0.631772,-0.60992 0.07926,-0.10952 0.168117,-0.19534 0.282213,-0.23006 0.722903,-0.2204 0.517864,-3.88134 -0.412303,-3.98075 -0.0962,-0.01 -0.199911,0.017 -0.311394,0.0906 -0.644943,0.42619 -0.0712,1.8784 -0.535073,2.47369 -0.134063,0.17206 -0.264484,0.30637 -0.393577,0.42604 -0.09422,-0.0787 -0.190133,-0.1539 -0.28514,-0.23101 -0.06504,-0.25518 0.180548,-0.87829 -0.319284,-0.69253 -0.133991,0.0497 -0.256814,0.0994 -0.379029,0.14885 -0.111394,-0.0832 -0.221479,-0.16896 -0.333868,-0.2493 0.210495,-0.43958 -0.162777,-1.17545 0.132506,-1.4493 0.473795,-0.43932 -1.480581,-3.21157 -2.459193,-3.37573 -0.181222,-0.0305 -0.3288,0.029 -0.421597,0.20891 -0.321574,0.62426 1.053858,1.6578 0.989151,2.36251 -0.01946,0.21245 -0.08862,0.42389 -0.135566,0.58491 -0.05904,-0.23889 0.132549,-0.90688 -0.416739,-0.77275 -0.244353,0.0596 -0.251058,0.14031 -0.475334,0.19758 -1.485167,-1.35946 -0.987427,-1.16297 -1.364436,-0.82303 -0.333386,0.30061 0.09638,0.73896 1.010303,0.90453 -0.29474,0.0562 -0.625318,0.0923 -1.059963,0.0814 -0.867812,-0.0214 -2.028559,-1.22198 -2.82511,-1.02744 -1.46915,0.35883 2.871251,3.06556 3.566521,2.66588 0.214687,-0.12338 0.599195,-0.0469 0.993565,0.0148 0.01083,0.20987 0.516913,0.0954 0.815822,0.10194 0.267348,0.31199 0.541491,0.62292 0.824855,0.93185 -0.147728,0.0262 -0.304843,0.0494 -0.485612,0.065 -0.862694,0.0742 -4.069912,-0.008 -4.825998,0.27255 -1.394484,0.51825 5.210652,1.74422 5.832278,1.271 0.1113,-0.0847 0.293023,-0.10621 0.502183,-0.10736 0.197679,0.10257 0.556398,0.17785 0.66177,0.28328 0.40435,0.40486 0.17258,1.14715 1.156986,0.84702 0.02134,0.0155 0.04432,0.035 0.06597,0.0512 -0.209738,0.0491 -0.444291,0.0891 -0.728964,0.11354 -0.862684,0.0742 -3.712823,0.12281 -4.46892,0.40379 -1.394483,0.51824 4.85358,1.61247 5.475197,1.13927 0.09029,-0.0687 0.228195,-0.0952 0.387572,-0.10405 0.143656,0.13669 0.623547,0.21967 0.748454,0.34476 0.404349,0.40486 0.172602,1.14713 1.156996,0.84702 0.02041,-0.0141 0.03636,-0.0336 0.05532,-0.0498 0.126519,0.15389 0.253325,0.314 0.380751,0.47372 -0.198711,0.0443 -0.420661,0.0805 -0.685309,0.10311 -0.862695,0.0742 -3.391527,-0.79441 -4.147634,-0.51344 1.526817,1.01871 4.457105,2.49454 5.137234,2.06629 0.155105,0.13132 0.616636,0.21278 0.738814,0.33511 0.31982,0.32023 0.243825,0.84955 0.684277,0.90917 -0.11027,0.0165 -0.226811,0.0309 -0.354144,0.0419 -0.862684,0.0742 -2.578055,-0.48973 -3.99135,-0.76344 -1.394494,0.51823 3.562019,2.43193 4.183646,1.95873 0.134673,-0.10247 1.184778,0.23313 1.450949,0.24089 0.06691,0.0307 0.150599,0.0584 0.230921,0.0863 0.23249,0.34241 0.477292,0.69603 0.689435,1.01562 -0.191804,0.0422 -0.399493,0.0793 -0.653424,0.1011 -0.862684,0.0743 -2.211702,-0.98649 -2.967778,-0.7055 -1.394505,0.51823 2.849104,2.12731 3.470731,1.65413 0.136845,-0.10417 0.88041,0.478 1.15135,0.48574 0.633712,0.98638 1.013404,1.60469 1.039063,1.64639 -0.990629,0.9661 -1.496102,2.04296 -1.496102,2.04296 -0.131201,0.17154 -0.253918,0.34663 -0.371145,0.5237 -0.0032,-0.002 -0.700344,-0.37722 -1.74408,-0.96163 0.02032,-0.19848 0.05908,-0.37249 0.187647,-0.46123 0.584302,-0.40306 -1.325547,-4.10081 -2.0412,-3.13873 -0.388035,0.52164 0.630813,1.61878 0.457929,2.2402 -0.05085,0.18292 -0.113192,0.33043 -0.179751,0.46587 -0.327568,-0.18881 -0.689386,-0.40492 -1.039806,-0.611 -0.02192,-0.0615 -0.04318,-0.12558 -0.06969,-0.17762 0.01973,-0.195 0.05792,-0.36593 0.184461,-0.45326 0.584322,-0.40306 -1.326154,-4.10131 -2.041806,-3.13924 -0.388025,0.52163 0.63144,1.61928 0.458545,2.24071 -0.02559,0.0918 -0.0537,0.17543 -0.08344,0.2541 -0.01858,-0.32767 -0.606771,-0.32879 -0.923626,-0.59622 -0.12103,-0.10215 -0.161201,-0.44752 -0.288574,-0.57469 0.541289,-0.45052 -1.343555,-4.08193 -2.053616,-3.12738 -0.388025,0.52164 0.630813,1.61878 0.457929,2.24021 -0.05298,0.19062 -0.116542,0.3486 -0.186218,0.48884 -0.161442,-0.10996 -0.323355,-0.21952 -0.478501,-0.32821 0.01974,-0.0122 0.04273,-0.0219 0.06049,-0.0352 0.43323,-0.68616 -0.404034,-0.59595 -0.80461,-0.93406 -0.123789,-0.10448 -0.163756,-0.46349 -0.298268,-0.58286 0.02668,-0.11533 0.06992,-0.21305 0.154777,-0.27159 0.584324,-0.40307 -1.325537,-4.10082 -2.041189,-3.13874 -0.388025,0.52164 0.630824,1.61879 0.45793,2.24021 -0.057,0.20506 -0.125933,0.37193 -0.201994,0.51971 -0.01539,-0.0175 -0.03404,-0.0362 -0.04891,-0.0534 0.433199,-0.68616 -0.404639,-0.59647 -0.805226,-0.93457 -0.104343,-0.0881 -0.148416,-0.35762 -0.239866,-0.51278 0.02354,-0.15246 0.06609,-0.28293 0.170736,-0.35511 0.584303,-0.40307 -1.326153,-4.10131 -2.041795,-3.13925 -0.388056,0.52166 0.630796,1.61927 0.457911,2.2407 -0.03621,0.13022 -0.07786,0.24237 -0.122212,0.34734 -0.308343,-0.23964 -0.620342,-0.47244 -0.933698,-0.70071 0.02452,-0.21877 0.204075,-0.57554 -0.02459,-0.60587 -0.02586,-0.29428 -0.06934,-0.58311 0.08859,-0.72658 0.511611,-0.46462 -1.992915,-3.91935 -2.541866,-2.88585 -0.297638,0.56037 0.893517,1.53505 0.825361,2.17044 -0.03416,0.31824 -0.108454,0.5555 -0.201356,0.76452 -0.08443,-0.68436 -0.519255,-1.04458 -0.883933,-0.8334 -0.412367,0.23882 -0.574546,-0.14537 0.757059,1.08284 -0.08653,0.15752 -0.175794,0.1542 -0.267107,0.32611 -0.205236,0.38641 0.546949,0.31773 0.802377,0.3862 -0.181374,0.0171 -0.420739,0.0453 -0.655521,0.0368 -0.778823,-0.0279 -1.764858,-1.14175 -2.482812,-0.97366 -0.206895,0.0484 -0.287299,0.14993 -0.273245,0.28536 z m 16.963354,-6.08503 c 0.01302,-0.029 0.02212,-0.0577 0.03556,-0.0867 -0.01962,0.0244 -0.03052,0.0538 -0.03556,0.0867 z"
       style="fill:#ffffff;fill-opacity:1;fill-rule:evenodd;stroke:none;stroke-width:0.28382233px;stroke-linecap:butt;stroke-linejoin:miter;stroke-opacity:1" />
    <path
       id="path6229"
       d="m 107.10657,148.39431 c 0,0 -5.12034,4.64008 -6.08039,10.72038 -0.96004,6.08031 -0.80002,7.04032 -0.80002,7.04032 0,0 -1.439919,-8.80036 -3.36001,-11.3605 -1.920095,-2.56012 -3.040192,-3.2001 -3.040192,-3.2001 0,0 3.93903,4.66677 4.640238,11.84047 0.431925,4.41875 1.920044,5.44045 0.479976,8.64059 -1.440077,3.20017 -14.400689,6.72031 -17.120824,14.40069 -2.720136,7.68039 0.48004,16.32069 9.280479,19.20084 7.608681,2.49011 10.905903,0.79637 11.660923,0.29133 -2.46794,-4.1523 -3.980486,-7.81161 -3.980486,-7.81161 1.446296,2.81937 3.202776,5.46199 5.051486,7.86236 2.29892,0.4331 8.68882,1.39101 14.46938,-0.022 7.20038,-1.76009 16.48081,-15.36083 11.68057,-24.32127 -4.80025,-8.96046 -21.12093,-7.04037 -23.84108,-12.00061 -2.72013,-4.96025 0.95995,-14.40069 0.95995,-14.40069 0,0 -2.40003,4.80022 -2.88005,6.24029 -0.48002,1.44007 -1.60029,3.52016 -1.60029,3.52016 0,0 -0.4799,-6.56019 0.96018,-9.92036 1.44006,-3.36017 3.52016,-6.72026 3.52016,-6.72026 z"
       style="fill:#ffffff;fill-opacity:1;fill-rule:evenodd;stroke:none;stroke-width:0.12256514px;stroke-linecap:butt;stroke-linejoin:miter;stroke-opacity:1" />
    <path
       id="path6233"
       d="m 100.57668,167.71796 c 0,0 1.24457,5.43085 -5.091425,9.61714 -6.335994,4.18627 -17.1977,9.84341 -10.974848,21.15769 0,0 -3.28114,-8.25943 1.357714,-12.33256 4.638855,-4.07314 17.537119,-9.61713 14.708559,-18.44227 z"
       style="fill:#000000;fill-opacity:1;fill-rule:evenodd;stroke:none;stroke-width:0.12256514px;stroke-linecap:butt;stroke-linejoin:miter;stroke-opacity:1" />
    <path
       id="path6235"
       d="m 104.53667,164.88939 c 0,0 -2.1497,8.82514 5.43086,12.55885 7.58056,3.7337 20.70512,5.77028 18.32911,12.89826 -2.37599,7.128 -7.46741,10.52229 -7.46741,10.52229 0,0 10.40912,-12.10628 4.63884,-15.16113 -5.77028,-3.05486 -19.57368,-5.88342 -21.15768,-12.10628 0,0 -3.0099,10.37482 4.85571,14.25654 8.71198,4.29943 11.54998,10.1823 3.29057,15.5 0,0 8.14505,-7.49209 -3.40371,-14.02914 -11.993127,-6.78857 -6.21343,-20.36625 -4.51629,-24.43939 z"
       style="fill:#000000;fill-opacity:1;fill-rule:evenodd;stroke:none;stroke-width:0.12256514px;stroke-linecap:butt;stroke-linejoin:miter;stroke-opacity:1" />
    <path
       id="path6253"
       d="m 153.30296,132.01779 c -1.42991,-0.007 -2.8793,0.0667 -4.23821,0.221 0.0678,1.45007 0.22406,2.98345 0.56397,3.9414 0.80268,2.26208 7.08769,4.44625 7.4989,7.59708 0.34647,2.65476 0.92731,4.71319 2.69032,6.21596 1.86468,-0.20611 3.41361,-0.43808 4.47783,-0.67839 4.52415,-1.02158 10.72666,-2.77281 9.63211,-4.88895 -1.09456,-2.11614 -9.34024,-9.92403 -11.96716,-10.79968 -1.55519,-1.05351 -5.04182,-1.58961 -8.65776,-1.60842 z m -5.80307,0.62676 c -5.02195,0.72352 -29.97263,10.7066 -29.6476,13.68309 0.32619,2.98721 9.59347,3.57099 19.15258,4.22773 6.62714,0.45529 14.61693,0.17378 20.64209,-0.38197 -1.12006,-1.49895 -2.13691,-3.69208 -2.18062,-5.30974 -0.073,-2.69991 -4.46686,-4.12722 -6.29112,-6.3893 -1.18507,-1.46949 -1.74563,-4.13887 -1.67533,-5.82981 z"
       style="fill:#ffffff;fill-opacity:1;fill-rule:evenodd;stroke:#ffffff;stroke-width:0.93819505;stroke-linecap:butt;stroke-linejoin:miter;stroke-miterlimit:4;stroke-dasharray:none;stroke-opacity:1" />
    <path
       id="path6258"
       d="m 116.41974,145.38196 c 0.13935,-1.66541 11.16446,-7.09311 16.63722,-9.42816 5.47279,-2.33505 14.09826,-5.38343 17.60085,-5.38343 3.50257,0 8.77281,-0.073 12.05647,1.4594 2.30559,0.97126 12.26595,9.15537 12.87483,13.27172 0.2189,1.97021 -1.07751,5.32684 -1.2964,6.20249 -0.21892,0.87564 -13.86437,4.81604 -20.28575,4.74307 -6.42141,-0.073 -30.42864,-0.073 -33.20151,-1.16753 -2.77287,-1.09456 -3.86742,-3.86742 -3.72149,-5.76465 0.14594,-1.89723 -0.77881,-2.56354 -0.66422,-3.93291 z"
       style="fill:none;fill-opacity:1;fill-rule:evenodd;stroke:#ffffff;stroke-width:0.93819505;stroke-linecap:butt;stroke-linejoin:miter;stroke-miterlimit:4;stroke-dasharray:none;stroke-opacity:1" />
    <circle
       r="81.517204"
       cy="134.7674"
       cx="103.96784"
       id="path5117"
       style="opacity:1;fill:none;fill-opacity:1;stroke:#ffeeff;stroke-width:1.32291665;stroke-linecap:round;stroke-linejoin:round;stroke-miterlimit:4;stroke-dasharray:none;stroke-dashoffset:0;stroke-opacity:1" />
    <path
       id="path5384"
       d="m 103.85544,59.117286 v 0.0085 c -3.53444,0.04724 -23.307214,0.84906 -26.052113,13.048611 0,0 -13.72671,1.673989 -14.731103,10.713527 -1.004393,9.039539 10.378731,7.700351 10.378731,7.700351 l 2.678382,16.339985 c 0,0 10.568414,-4.28995 28.091633,-4.34975 17.52361,0.0597 28.09228,4.34975 28.09228,4.34975 l 2.67838,-16.339985 c 0,0 11.38312,1.339188 10.37873,-7.700351 -1.00439,-9.039539 -14.7311,-10.713528 -14.7311,-10.713528 -2.74491,-12.199551 -22.51767,-13.001375 -26.0521,-13.048611 v -0.0085 c 0,0 -0.27574,0.004 -0.36619,0.0039 -0.0901,8.7e-5 -0.36553,-0.0039 -0.36553,-0.0039 z"
       style="fill:none;fill-rule:evenodd;stroke:#ffeeff;stroke-width:1.32291665;stroke-linecap:butt;stroke-linejoin:miter;stroke-miterlimit:4;stroke-dasharray:none;stroke-opacity:1" />
    <path
       id="path5402"
       d="m 74.744791,98.827083 c 0,0 13.172284,-5.820833 29.567189,-5.820833 14.54281,0 29.56718,5.820833 29.56718,5.820833"
       style="fill:none;fill-rule:evenodd;stroke:#ffeeff;stroke-width:1.32291665;stroke-linecap:butt;stroke-linejoin:miter;stroke-miterlimit:4;stroke-dasharray:none;stroke-opacity:1" />
    <path
       style="fill:none;fill-rule:evenodd;stroke:#ffffff;stroke-width:3.4395833;stroke-linecap:butt;stroke-linejoin:miter;stroke-miterlimit:4;stroke-dasharray:none;stroke-opacity:1"
       d="m 103.85544,59.117283 v 0.008 c -3.53444,0.0472 -23.307217,0.84906 -26.052115,13.048614 0,0 -13.726707,1.673987 -14.7311,10.713524 -1.004393,9.039545 10.378731,7.700354 10.378731,7.700354 l 2.678382,16.339985 c 0,0 10.568411,-4.28995 28.091632,-4.34975 17.52361,0.0597 28.09228,4.34975 28.09228,4.34975 l 2.67838,-16.339985 c 0,0 11.38312,1.339191 10.37873,-7.700354 -1.00439,-9.039537 -14.7311,-10.713524 -14.7311,-10.713524 -2.74491,-12.199554 -22.51767,-13.001374 -26.0521,-13.048614 v -0.008 c 0,0 -0.27574,0.004 -0.36619,0.004 -0.0901,9e-5 -0.36553,-0.004 -0.36553,-0.004 z"
       id="path5384-1-2" />
    <path
       style="fill:none;fill-rule:evenodd;stroke:#ffffff;stroke-width:3.4395833;stroke-linecap:butt;stroke-linejoin:miter;stroke-miterlimit:4;stroke-dasharray:none;stroke-opacity:1"
       d="m 74.744792,98.827082 c 0,0 13.172281,-5.820836 29.567188,-5.820836 14.54281,0 29.56718,5.820836 29.56718,5.820836"
       id="path5402-9-1" />
  </g>
</svg>
