<?xml version="1.0" encoding="UTF-8" standalone="no"?>
<svg
   xmlns:dc="http://purl.org/dc/elements/1.1/"
   xmlns:cc="http://creativecommons.org/ns#"
   xmlns:rdf="http://www.w3.org/1999/02/22-rdf-syntax-ns#"
   xmlns:svg="http://www.w3.org/2000/svg"
   xmlns="http://www.w3.org/2000/svg"
   width="163.03441mm"
   height="163.03441mm"
   viewBox="0 0 163.03441 163.03441"
   version="1.1"
   id="svg4520">
  <defs
     id="defs4514" />
  <metadata
     id="metadata4517">
    <rdf:RDF>
      <cc:Work
         rdf:about="">
        <dc:format>image/svg+xml</dc:format>
        <dc:type
           rdf:resource="http://purl.org/dc/dcmitype/StillImage" />
        <dc:title></dc:title>
      </cc:Work>
    </rdf:RDF>
  </metadata>
  <g
     id="layer1"
     transform="translate(-22.450638,-53.250191)">
    <circle
       style="opacity:1;fill:#000000;fill-opacity:1;stroke:none;stroke-width:2;stroke-linecap:round;stroke-linejoin:round;stroke-miterlimit:4;stroke-dasharray:none;stroke-dashoffset:0;stroke-opacity:1"
       id="path5117"
       cx="103.96784"
       cy="134.7674"
       r="81.517204" />
    <path
       style="fill:none;fill-rule:evenodd;stroke:#ffffff;stroke-width:3.43958329;stroke-linecap:butt;stroke-linejoin:miter;stroke-miterlimit:4;stroke-dasharray:none;stroke-opacity:1"
       d="m 103.85544,59.117287 v 0.0085 c -3.53444,0.04724 -23.307215,0.84906 -26.052114,13.048611 0,0 -13.726708,1.673989 -14.731101,10.713528 -1.004394,9.03954 10.37873,7.70035 10.37873,7.70035 l 2.678382,16.339984 c 0,0 10.568413,-4.28995 28.091633,-4.34975 17.52361,0.0597 28.09228,4.34975 28.09228,4.34975 l 2.67838,-16.339984 c 0,0 11.38312,1.33919 10.37873,-7.70035 -1.00439,-9.039539 -14.7311,-10.713528 -14.7311,-10.713528 -2.74491,-12.199551 -22.51767,-13.001375 -26.0521,-13.048611 v -0.0085 c 0,0 -0.27574,0.004 -0.36619,0.0039 -0.0901,8.7e-5 -0.36553,-0.0039 -0.36553,-0.0039 z"
       id="path5384" />
    <path
       style="fill:none;fill-rule:evenodd;stroke:#ffffff;stroke-width:3.43958329;stroke-linecap:butt;stroke-linejoin:miter;stroke-miterlimit:4;stroke-dasharray:none;stroke-opacity:1"
       d="m 74.744791,98.827083 c 0,0 13.172283,-5.820833 29.567189,-5.820833 14.54281,0 29.56718,5.820833 29.56718,5.820833"
       id="path5402" />
    <path
       style="fill:#ffffff;stroke:none;stroke-width:1.85208333;stroke-linecap:butt;stroke-linejoin:miter;stroke-miterlimit:4;stroke-dasharray:none;stroke-opacity:1;fill-opacity:1"
       d="m 111.68165,114.42309 c -1.6664,-0.005 -3.43558,0.0102 -5.31133,0.0486 -20.008071,0.41042 -28.934903,1.3338 -28.934903,1.3338 l -9.337047,0.30784 10.46592,14.15971 3.898942,67.41176 c 0,0 2.462576,4.71976 20.828958,4.71976 18.36637,0 23.49655,-4.61729 23.49655,-4.61729 l 2.77029,-43.09417 c 0,0 9.13185,1.23116 13.03086,-5.54079 3.899,-6.77196 4.20687,-16.00649 4.61729,-19.39247 0.41042,-3.38598 -2.56503,-9.23433 -6.97707,-9.74736 -4.41203,-0.51302 -8.51623,-0.30783 -8.51623,-0.30783 0,0 -1.9e-4,-1.53905 0.61545,-1.94947 0.61563,-0.41043 1.94969,-0.20541 1.94969,-0.82104 0,-0.55791 -6.48889,-2.46404 -22.59737,-2.51108 z m 19.62171,9.28322 c 0,0 5.84858,0.10246 7.49026,0.10246 2.24616,0 4.412,3.18076 4.20678,5.9511 -0.20521,2.77035 -2.05221,13.64657 -2.97565,15.69867 -0.92346,2.05211 -6.0536,5.13028 -7.79789,5.13028 -1.74429,0 -2.56514,-0.30783 -2.56514,-0.30783 z"
       id="path3717" />
    <path
       id="path869"
       d="m 80.580493,129.94467 v -10.99094 c 0,0 8.304262,-2.44243 28.576437,-1.58758 0,0 -12.212152,-0.24424 -26.500372,3.78577 z"
       style="fill:#000000;stroke:none;stroke-width:0.26458332px;stroke-linecap:butt;stroke-linejoin:miter;stroke-opacity:1;fill-opacity:1" />
    <path
       id="path871"
       d="M 90.228092,129.17126 H 117.70544"
       style="fill:#00000e;fill-opacity:0.05490196;stroke:#000000;stroke-width:1.22615826;stroke-linecap:butt;stroke-linejoin:miter;stroke-miterlimit:4;stroke-dasharray:none;stroke-opacity:1" />
    <path
       id="path871-2"
       d="M 95.845683,133.90461 H 112.08785"
       style="fill:#00000e;fill-opacity:0.05490196;stroke:#000000;stroke-width:1.25118184;stroke-linecap:butt;stroke-linejoin:miter;stroke-miterlimit:4;stroke-dasharray:none;stroke-opacity:1" />
    <path
       id="path871-2-8"
       d="M 95.845683,138.63796 H 112.08785"
       style="fill:#00000e;fill-opacity:0.05490196;stroke:#000000;stroke-width:1.25118184;stroke-linecap:butt;stroke-linejoin:miter;stroke-miterlimit:4;stroke-dasharray:none;stroke-opacity:1" />
    <path
       id="path871-2-8-6"
       d="M 95.845683,143.37131 H 112.08785"
       style="fill:#00000e;fill-opacity:0.05490196;stroke:#000000;stroke-width:1.25118184;stroke-linecap:butt;stroke-linejoin:miter;stroke-miterlimit:4;stroke-dasharray:none;stroke-opacity:1" />
    <path
       id="path871-2-8-6-7"
       d="M 95.845683,148.10466 H 112.08785"
       style="fill:#00000e;fill-opacity:0.05490196;stroke:#000000;stroke-width:1.25118184;stroke-linecap:butt;stroke-linejoin:miter;stroke-miterlimit:4;stroke-dasharray:none;stroke-opacity:1" />
    <path
       id="path871-1"
       d="M 90.228092,152.83801 H 117.70544"
       style="fill:#00000e;fill-opacity:0.05490196;stroke:#000000;stroke-width:1.22615826;stroke-linecap:butt;stroke-linejoin:miter;stroke-miterlimit:4;stroke-dasharray:none;stroke-opacity:1" />
    <path
       id="path871-2-2"
       d="M 95.845683,157.57136 H 112.08785"
       style="fill:#00000e;fill-opacity:0.05490196;stroke:#000000;stroke-width:1.25118184;stroke-linecap:butt;stroke-linejoin:miter;stroke-miterlimit:4;stroke-dasharray:none;stroke-opacity:1" />
    <path
       id="path871-2-8-2"
       d="M 95.845683,162.30471 H 112.08785"
       style="fill:#00000e;fill-opacity:0.05490196;stroke:#000000;stroke-width:1.25118184;stroke-linecap:butt;stroke-linejoin:miter;stroke-miterlimit:4;stroke-dasharray:none;stroke-opacity:1" />
    <path
       id="path871-2-8-6-8"
       d="M 95.845683,167.03806 H 112.08785"
       style="fill:#00000e;fill-opacity:0.05490196;stroke:#000000;stroke-width:1.25118184;stroke-linecap:butt;stroke-linejoin:miter;stroke-miterlimit:4;stroke-dasharray:none;stroke-opacity:1" />
    <path
       id="path871-2-8-6-7-2"
       d="M 95.845683,171.77141 H 112.08785"
       style="fill:#00000e;fill-opacity:0.05490196;stroke:#000000;stroke-width:1.25118184;stroke-linecap:butt;stroke-linejoin:miter;stroke-miterlimit:4;stroke-dasharray:none;stroke-opacity:1" />
    <path
       id="path871-1-5"
       d="M 90.228092,171.77141 H 117.70544"
       style="fill:#00000e;fill-opacity:0.05490196;stroke:#000000;stroke-width:1.22615826;stroke-linecap:butt;stroke-linejoin:miter;stroke-miterlimit:4;stroke-dasharray:none;stroke-opacity:1" />
    <path
       id="path871-2-2-4"
       d="M 95.845683,176.50476 H 112.08785"
       style="fill:#00000e;fill-opacity:0.05490196;stroke:#000000;stroke-width:1.25118184;stroke-linecap:butt;stroke-linejoin:miter;stroke-miterlimit:4;stroke-dasharray:none;stroke-opacity:1" />
    <path
       id="path871-2-8-2-4"
       d="M 95.845683,181.23812 H 112.08785"
       style="fill:#00000e;fill-opacity:0.05490196;stroke:#000000;stroke-width:1.25118184;stroke-linecap:butt;stroke-linejoin:miter;stroke-miterlimit:4;stroke-dasharray:none;stroke-opacity:1" />
    <path
       id="path871-2-8-6-8-3"
       d="M 95.845683,185.97147 H 112.08785"
       style="fill:#00000e;fill-opacity:0.05490196;stroke:#000000;stroke-width:1.25118184;stroke-linecap:butt;stroke-linejoin:miter;stroke-miterlimit:4;stroke-dasharray:none;stroke-opacity:1" />
    <path
       id="path871-2-8-6-7-2-5"
       d="M 95.845683,190.70482 H 112.08785"
       style="fill:#00000e;fill-opacity:0.05490196;stroke:#000000;stroke-width:1.25118184;stroke-linecap:butt;stroke-linejoin:miter;stroke-miterlimit:4;stroke-dasharray:none;stroke-opacity:1" />
  </g>
</svg>
