<?xml version="1.0" encoding="UTF-8" standalone="no"?>
<svg
   xmlns:dc="http://purl.org/dc/elements/1.1/"
   xmlns:cc="http://creativecommons.org/ns#"
   xmlns:rdf="http://www.w3.org/1999/02/22-rdf-syntax-ns#"
   xmlns:svg="http://www.w3.org/2000/svg"
   xmlns="http://www.w3.org/2000/svg"
   width="163.03441mm"
   height="163.03441mm"
   viewBox="0 0 163.03441 163.03441"
   version="1.1"
   id="svg4520">
  <defs
     id="defs4514" />
  <metadata
     id="metadata4517">
    <rdf:RDF>
      <cc:Work
         rdf:about="">
        <dc:format>image/svg+xml</dc:format>
        <dc:type
           rdf:resource="http://purl.org/dc/dcmitype/StillImage" />
        <dc:title></dc:title>
      </cc:Work>
    </rdf:RDF>
  </metadata>
  <g
     id="layer1"
     transform="translate(-22.450638,-53.250191)">
    <circle
       style="opacity:1;fill:#000000;fill-opacity:1;stroke:none;stroke-width:2;stroke-linecap:round;stroke-linejoin:round;stroke-miterlimit:4;stroke-dasharray:none;stroke-dashoffset:0;stroke-opacity:1"
       id="path5117"
       cx="103.96784"
       cy="134.7674"
       r="81.517204" />
    <path
       style="opacity:1;fill:#ffffff;fill-opacity:1;stroke:#000000;stroke-width:1.29615307;stroke-linecap:round;stroke-linejoin:round;stroke-miterlimit:4;stroke-dasharray:none;stroke-dashoffset:0;stroke-opacity:1"
       d="m 154.15519,192.55043 c 0,0 -9.55216,-1.49316 -24.95504,1.11176 -15.40288,2.60492 -24.95505,7.46176 -24.95505,7.46176 0,0 -8.814678,-4.73212 -24.955043,-7.46176 -16.140365,-2.72964 -24.955043,-1.11176 -24.955043,-1.11176 v -19.7497 -19.7497 -19.7497 -19.74969 c 0,0 9.334353,-1.52999 24.955043,1.11176 15.62069,2.64175 24.955043,7.46176 24.955043,7.46176 0,0 9.18438,-4.79464 24.95505,-7.46176 15.77067,-2.66712 24.95504,-1.11176 24.95504,-1.11176 v 19.74969 19.7497 19.7497 z"
       id="rect5119" />
    <path
       style="fill:none;fill-rule:evenodd;stroke:#000000;stroke-width:1.06500006;stroke-linecap:butt;stroke-linejoin:miter;stroke-miterlimit:4;stroke-dasharray:none;stroke-opacity:1"
       d="m 104.2451,122.12516 v 78.99879"
       id="path5122" />
    <path
       style="fill:#000000;fill-opacity:1;fill-rule:evenodd;stroke:none;stroke-width:0.1084576px;stroke-linecap:butt;stroke-linejoin:miter;stroke-opacity:1"
       d="m 62.091024,119.66906 c 0,0 -0.247991,6.30413 -0.238309,6.54622 0.0097,0.24209 -0.135515,0.45522 -0.2614,0.45522 -0.12589,0 -0.251902,-0.0872 -0.222847,-0.59079 0.02906,-0.50356 0.01949,-6.40091 0.01949,-6.40091 l -0.164593,0.01 c 0,0 -0.474472,4.97733 -0.503523,5.84887 -0.02906,0.87153 -0.06779,2.30491 0,2.74067 0.06779,0.43577 0.42602,1.10386 0.735902,1.44279 0.309878,0.33892 0.803807,0.9103 0.823177,1.86898 0.01935,0.95869 -0.03877,7.21428 -0.242124,9.03482 -0.203361,1.82054 -0.658643,5.40348 -0.736114,7.01098 -0.07747,1.6075 0.06779,3.82504 0.542288,4.43511 0.472195,0.60711 0.434988,0.67698 0.77901,0.67698 0.344022,0 0.306814,-0.0699 0.779009,-0.67698 0.474501,-0.61007 0.619759,-2.82761 0.542288,-4.43511 -0.07747,-1.6075 -0.532541,-5.19044 -0.735902,-7.01098 -0.203356,-1.82054 -0.26147,-8.07613 -0.242123,-9.03482 0.01937,-0.95868 0.513299,-1.53006 0.823176,-1.86898 0.309883,-0.33893 0.668114,-1.00702 0.735902,-1.44279 0.06778,-0.43576 0.02906,-1.86914 0,-2.74067 -0.02905,-0.87154 -0.503523,-5.84887 -0.503523,-5.84887 l -0.164593,-0.01 c 0,0 -0.0098,5.89735 0.01928,6.40091 0.02905,0.50355 -0.09674,0.59079 -0.222635,0.59079 -0.125886,0 -0.271286,-0.21313 -0.261612,-0.45522 0.0097,-0.24209 -0.238098,-6.54622 -0.238098,-6.54622 l -0.155061,0.01 c 10e-7,0 -0.226449,6.52692 -0.226449,6.75933 0,0.23087 -0.147596,0.23237 -0.149552,0.23237 -0.0013,0 -0.149553,-8.2e-4 -0.149553,-0.23237 0,-0.23241 -0.226655,-6.75933 -0.226655,-6.75933 z"
       id="path5168" />
    <path
       style="fill:#000000;fill-opacity:1;fill-rule:evenodd;stroke:none;stroke-width:0.1084576px;stroke-linecap:butt;stroke-linejoin:miter;stroke-opacity:1"
       d="m 70.046136,118.11104 c -0.311815,-0.007 -0.698196,0.19658 -1.023569,0.63041 -0.650745,0.86766 -1.816664,7.59203 -1.816664,7.59203 0,3.40683 1.386587,5.22197 1.580473,7.64245 0.07656,0.95582 0.232365,4.39438 0.02902,6.21491 -0.20336,1.82054 -0.658642,5.83731 -0.736114,7.44482 -0.07747,1.60749 0.06779,3.82503 0.542288,4.43511 0.472194,0.60711 0.554996,0.67701 0.941591,0.67701 0.386593,0 0.469609,-0.0699 0.941802,-0.67701 0.474501,-0.61008 0.619758,-2.82762 0.542288,-4.43511 -0.07747,-1.60751 -0.532541,-5.62428 -0.735902,-7.44482 -0.203356,-1.82053 0.03568,-5.25605 0.02902,-6.21491 -0.03419,-4.91982 0.437294,-10.31018 0.281948,-15.23448 -0.02712,-0.40672 -0.264366,-0.62364 -0.576181,-0.63041 z"
       id="path5168-7" />
    <path
       style="fill:#000000;fill-opacity:1;fill-rule:evenodd;stroke:#000000;stroke-width:0.99999994px;stroke-linecap:butt;stroke-linejoin:miter;stroke-opacity:1"
       d="m 553.03125,445.23828 c -16.82324,0.0654 -49.42547,1.64973 -90.03125,10.76367 v 16.75391 c 27.66556,-5.91571 63.50126,-11.23636 103,-11.23633 l -0.5,-16 c 0,0 -4.4375,-0.31249 -12.46875,-0.28125 z M 450,459.11719 c -13.82135,3.5236 -28.40585,7.91355 -43.5,13.40234 v 16 c 0,0 16.47435,-6.29689 43.5,-12.80859 z m 103.03125,18.12109 c -4.56445,0.0178 -10.30008,0.14947 -17.03125,0.50977 v 16.78125 c 9.70493,-0.63706 19.72148,-1.00978 30,-1.00977 l -0.5,-16 c 0,0 -4.4375,-0.31249 -12.46875,-0.28125 z M 522.5,478.70703 c -28.98056,2.52722 -70.16965,9.14689 -116,25.8125 v 16 c 0,0 48.59202,-18.58907 116,-24.91211 z m 30.53125,52.53125 c -17.64397,0.0686 -52.64379,1.80716 -96.03125,12.15234 v 16.6836 c 28.38431,-6.42067 66.57865,-12.55472 109,-12.55469 l -0.5,-16 c 0,0 -4.4375,-0.31249 -12.46875,-0.28125 z M 443.5,546.82227 c -11.8692,3.21019 -24.25334,7.0621 -37,11.69726 v 16 c 0,0 13.85286,-5.29893 37,-11.20117 z m 109.53125,24.41601 c -24.09375,0.0937 -80.53126,3.28121 -146.53125,27.28125 v 16 c 0,0 70.49999,-27.00007 159.5,-27 l -0.5,-16 c 0,0 -4.4375,-0.31249 -12.46875,-0.28125 z m 0,36 c -12.747,0.0496 -34.55159,0.96767 -62.03125,5.37305 v 16.95117 c 22.27966,-3.50914 47.76578,-6.04299 75,-6.04297 l -0.5,-16 c 0,0 -4.4375,-0.31249 -12.46875,-0.28125 z M 479,614.70508 c -21.72639,4.07678 -46.35711,10.30793 -72.5,19.81445 v 16 c 0,0 28.67392,-10.96659 72.5,-18.92187 z m 74.03125,32.5332 c -16.75437,0.0652 -49.15715,1.63514 -89.53125,10.65039 v 16.75781 c 27.59589,-5.87217 63.24236,-11.12698 102.5,-11.12695 l -0.5,-16 c 0,0 -4.4375,-0.31249 -12.46875,-0.28125 z M 451,660.86523 c -14.1171,3.56552 -29.04089,8.0328 -44.5,13.6543 v 16 c 0,0 16.87888,-6.45255 44.5,-13.04883 z m 102.03125,30.37305 c -3.85322,0.015 -8.61674,0.12538 -14.03125,0.3711 v 16.73437 c 8.76798,-0.51983 17.77679,-0.82423 27,-0.82422 l -0.5,-16 c 0,0 -4.4375,-0.31249 -12.46875,-0.28125 z M 523.5,692.62695 c -22.16065,1.8776 -51.65759,6.1671 -85,15.58594 v 16.41797 c 20.81835,-5.53948 50.44473,-11.94924 85,-15.11914 z M 428,711.32227 c -7.0341,2.16884 -14.19865,4.54222 -21.5,7.19726 v 16 c 0,0 7.86807,-2.98929 21.5,-6.96094 z"
       id="path5231"
       transform="scale(0.26458333)" />
    <path
       style="fill:#000000;fill-opacity:1;fill-rule:evenodd;stroke:#000000;stroke-width:0.99999994px;stroke-linecap:butt;stroke-linejoin:miter;stroke-opacity:1"
       d="m 282.5,448.23242 v 16.94531 c 21.12376,2.60578 39.92656,6.28442 55.5,9.95313 v -16.63867 c -20.57407,-5.11816 -39.38175,-8.30579 -55.5,-10.25977 z m 71,14.4043 v 16.39844 c 19.18629,5.17143 30.51172,9.48437 30.51172,9.48437 v -16 c -10.44807,-3.79931 -20.64019,-7.0593 -30.51172,-9.88281 z m -71,17.5957 v 16.94531 c 6.74607,0.83218 13.24734,1.77711 19.5,2.79297 v -16.93164 c -6.84681,-1.134 -13.37638,-2.06428 -19.5,-2.80664 z m 37,6.0586 v 16.8457 c 39.25811,7.75733 64.51172,17.38281 64.51172,17.38281 v -16 C 361.00453,496.15326 339.1996,490.34172 319.5,486.29102 Z m -37,47.9414 v 16.94531 c 28.20762,3.47963 52.3155,8.86524 70,13.5918 v -16.41601 c -26.26851,-7.44924 -50.16623,-11.71669 -70,-14.1211 z m 81.5,17.54102 v 16.21875 c 12.71711,3.75296 20.01172,6.52734 20.01172,6.52734 v -16 C 377.22787,556.05267 370.55377,553.81837 364,551.77344 Z m -81.5,22.45898 v 16.94531 c 14.32353,1.76692 27.57349,4.03308 39.5,6.44922 v -16.82226 c -14.37114,-3.03821 -27.66092,-5.13704 -39.5,-6.57227 z m 56,10.38477 v 16.63086 c 28.1994,6.67241 45.51172,13.27148 45.51172,13.27148 v -16 C 368.17248,592.75979 352.91005,588.21896 338.5,584.61719 Z m -101.01953,22.62109 c -8.03122,-0.0314 -12.46875,0.28125 -12.46875,0.28125 l -0.5,16 c 15.48768,-10e-6 30.39508,0.83095 44.48828,2.18164 v -16.91211 c -13.21778,-1.18482 -23.96253,-1.52138 -31.51953,-1.55078 z M 286.5,610.72266 v 16.95507 c 57.631,7.57252 97.51172,22.8418 97.51172,22.8418 v -16 C 347.21284,621.13809 313.40481,614.2352 286.5,610.72266 Z m -49.01953,40.51562 c -8.03122,-0.0314 -12.46875,0.28125 -12.46875,0.28125 l -0.5,12 c 34.67129,-3e-5 66.50642,4.10289 92.48828,9.10547 v -12.85547 c -35.69818,-7.14676 -64.17466,-8.47155 -79.51953,-8.53125 z M 334,663.50781 v 12.67969 c 30.87637,7.01605 50.01172,14.33203 50.01172,14.33203 v -12 C 366.525,672.16071 349.72046,667.27416 334,663.50781 Z m -96.51953,27.73047 c -4.1573,0.006 -12.46875,0.28125 -12.46875,0.28125 l -0.5,16 c 7.64809,0 15.14642,0.21168 22.48828,0.57617 v -16.66992 c -3.55444,-0.1174 -6.34574,-0.19204 -9.51953,-0.1875 z M 263.5,692.3457 v 16.85157 c 69.74667,5.89008 120.51172,25.32226 120.51172,25.32226 v -16 C 335.72931,700.96225 292.62841,694.56351 263.5,692.3457 Z"
       id="path5231-4"
       transform="scale(0.26458333)" />
    <path
       style="fill:none;fill-rule:evenodd;stroke:#ffffff;stroke-width:3.43958329;stroke-linecap:butt;stroke-linejoin:miter;stroke-miterlimit:4;stroke-dasharray:none;stroke-opacity:1"
       d="m 103.85544,59.117287 v 0.0085 c -3.53444,0.04724 -23.307215,0.84906 -26.052114,13.048611 0,0 -13.726708,1.673989 -14.731101,10.713528 -1.004394,9.03954 10.37873,7.70035 10.37873,7.70035 l 2.678382,16.339984 c 0,0 10.568413,-4.28995 28.091633,-4.34975 17.52361,0.0597 28.09228,4.34975 28.09228,4.34975 l 2.67838,-16.339984 c 0,0 11.38312,1.33919 10.37873,-7.70035 -1.00439,-9.039539 -14.7311,-10.713528 -14.7311,-10.713528 -2.74491,-12.199551 -22.51767,-13.001375 -26.0521,-13.048611 v -0.0085 c 0,0 -0.27574,0.004 -0.36619,0.0039 -0.0901,8.7e-5 -0.36553,-0.0039 -0.36553,-0.0039 z"
       id="path5384" />
    <path
       style="fill:none;fill-rule:evenodd;stroke:#ffffff;stroke-width:3.43958329;stroke-linecap:butt;stroke-linejoin:miter;stroke-miterlimit:4;stroke-dasharray:none;stroke-opacity:1"
       d="m 74.744791,98.827083 c 0,0 13.172283,-5.820833 29.567189,-5.820833 14.54281,0 29.56718,5.820833 29.56718,5.820833"
       id="path5402" />
  </g>
</svg>
