<?xml version="1.0" encoding="UTF-8" standalone="no"?>
<svg
   xmlns:dc="http://purl.org/dc/elements/1.1/"
   xmlns:cc="http://creativecommons.org/ns#"
   xmlns:rdf="http://www.w3.org/1999/02/22-rdf-syntax-ns#"
   xmlns:svg="http://www.w3.org/2000/svg"
   xmlns="http://www.w3.org/2000/svg"
   width="163.03441mm"
   height="163.03441mm"
   viewBox="0 0 163.03441 163.03441"
   version="1.1"
   id="svg4520">
  <defs
     id="defs4514" />
  <metadata
     id="metadata4517">
    <rdf:RDF>
      <cc:Work
         rdf:about="">
        <dc:format>image/svg+xml</dc:format>
        <dc:type
           rdf:resource="http://purl.org/dc/dcmitype/StillImage" />
        <dc:title></dc:title>
      </cc:Work>
    </rdf:RDF>
  </metadata>
  <g
     id="layer1"
     transform="translate(-22.450638,-53.250191)">
    <circle
       style="opacity:1;fill:#000000;fill-opacity:1;stroke:none;stroke-width:2;stroke-linecap:round;stroke-linejoin:round;stroke-miterlimit:4;stroke-dasharray:none;stroke-dashoffset:0;stroke-opacity:1"
       id="path5117-9"
       cx="103.96784"
       cy="134.76738"
       r="81.517204" />
    <path
       style="fill:none;fill-rule:evenodd;stroke:none;stroke-width:3.4395833;stroke-linecap:butt;stroke-linejoin:miter;stroke-miterlimit:4;stroke-dasharray:none;stroke-opacity:1"
       d="m 103.85544,59.117284 v 0.008 c -3.53444,0.0472 -23.307216,0.84906 -26.052115,13.048614 0,0 -13.726707,1.673987 -14.7311,10.713524 -1.004393,9.039544 10.378731,7.700354 10.378731,7.700354 l 2.678382,16.339984 c 0,0 10.568411,-4.28995 28.091632,-4.34975 17.52361,0.0597 28.09228,4.34975 28.09228,4.34975 l 2.67838,-16.339984 c 0,0 11.38312,1.33919 10.37873,-7.700354 -1.00439,-9.039537 -14.7311,-10.713524 -14.7311,-10.713524 -2.74491,-12.199554 -22.51767,-13.001374 -26.0521,-13.048614 v -0.008 c 0,0 -0.27574,0.004 -0.36619,0.004 -0.0901,9e-5 -0.36553,-0.004 -0.36553,-0.004 z"
       id="path5384-1" />
    <path
       style="fill:none;fill-rule:evenodd;stroke:none;stroke-width:3.4395833;stroke-linecap:butt;stroke-linejoin:miter;stroke-miterlimit:4;stroke-dasharray:none;stroke-opacity:1"
       d="m 74.744792,98.827083 c 0,0 13.172281,-5.820837 29.567188,-5.820837 14.54281,0 29.56718,5.820837 29.56718,5.820837"
       id="path5402-9" />
    <circle
       r="81.517204"
       cy="134.7674"
       cx="103.96784"
       id="path5117"
       style="opacity:1;fill:none;fill-opacity:1;stroke:#ffeeff;stroke-width:1.32291665;stroke-linecap:round;stroke-linejoin:round;stroke-miterlimit:4;stroke-dasharray:none;stroke-dashoffset:0;stroke-opacity:1" />
    <path
       id="path5384"
       d="m 103.85544,59.117286 v 0.0085 c -3.53444,0.04724 -23.307214,0.84906 -26.052113,13.048611 0,0 -13.72671,1.673989 -14.731103,10.713527 -1.004393,9.039539 10.378731,7.700351 10.378731,7.700351 l 2.678382,16.339985 c 0,0 10.568414,-4.28995 28.091633,-4.34975 17.52361,0.0597 28.09228,4.34975 28.09228,4.34975 l 2.67838,-16.339985 c 0,0 11.38312,1.339188 10.37873,-7.700351 -1.00439,-9.039539 -14.7311,-10.713528 -14.7311,-10.713528 -2.74491,-12.199551 -22.51767,-13.001375 -26.0521,-13.048611 v -0.0085 c 0,0 -0.27574,0.004 -0.36619,0.0039 -0.0901,8.7e-5 -0.36553,-0.0039 -0.36553,-0.0039 z"
       style="fill:none;fill-rule:evenodd;stroke:#ffeeff;stroke-width:1.32291665;stroke-linecap:butt;stroke-linejoin:miter;stroke-miterlimit:4;stroke-dasharray:none;stroke-opacity:1" />
    <path
       id="path5402"
       d="m 74.744791,98.827083 c 0,0 13.172284,-5.820833 29.567189,-5.820833 14.54281,0 29.56718,5.820833 29.56718,5.820833"
       style="fill:none;fill-rule:evenodd;stroke:#ffeeff;stroke-width:1.32291665;stroke-linecap:butt;stroke-linejoin:miter;stroke-miterlimit:4;stroke-dasharray:none;stroke-opacity:1" />
    <path
       style="fill:none;fill-rule:evenodd;stroke:#ffffff;stroke-width:3.4395833;stroke-linecap:butt;stroke-linejoin:miter;stroke-miterlimit:4;stroke-dasharray:none;stroke-opacity:1"
       d="m 103.85544,59.117283 v 0.008 c -3.53444,0.0472 -23.307217,0.84906 -26.052115,13.048614 0,0 -13.726707,1.673987 -14.7311,10.713524 -1.004393,9.039545 10.378731,7.700354 10.378731,7.700354 l 2.678382,16.339985 c 0,0 10.568411,-4.28995 28.091632,-4.34975 17.52361,0.0597 28.09228,4.34975 28.09228,4.34975 l 2.67838,-16.339985 c 0,0 11.38312,1.339191 10.37873,-7.700354 -1.00439,-9.039537 -14.7311,-10.713524 -14.7311,-10.713524 -2.74491,-12.199554 -22.51767,-13.001374 -26.0521,-13.048614 v -0.008 c 0,0 -0.27574,0.004 -0.36619,0.004 -0.0901,9e-5 -0.36553,-0.004 -0.36553,-0.004 z"
       id="path5384-1-2" />
    <path
       style="fill:none;fill-rule:evenodd;stroke:#ffffff;stroke-width:3.4395833;stroke-linecap:butt;stroke-linejoin:miter;stroke-miterlimit:4;stroke-dasharray:none;stroke-opacity:1"
       d="m 74.744792,98.827082 c 0,0 13.172281,-5.820836 29.567188,-5.820836 14.54281,0 29.56718,5.820836 29.56718,5.820836"
       id="path5402-9-1" />
    <path
       id="rect6871"
       transform="matrix(0.26458333,0,0,0.26458333,22.450638,53.250191)"
       d="M 179.15625 376.34375 C 160.70324 376.34375 145.84766 391.19933 145.84766 409.65234 L 145.84766 522.21289 C 145.84766 540.6659 160.70324 555.52148 179.15625 555.52148 L 434.14062 555.52148 C 452.59364 555.52148 467.44922 540.6659 467.44922 522.21289 L 467.44922 409.65234 C 467.44922 391.19933 452.59364 376.34375 434.14062 376.34375 L 398.63086 376.34375 L 398.63086 410.52734 C 398.63086 428.98036 383.77529 443.83594 365.32227 443.83594 L 247.97656 443.83594 C 229.52354 443.83594 214.66602 428.98036 214.66602 410.52734 L 214.66602 376.34375 L 179.15625 376.34375 z "
       style="opacity:1;fill:#ffffff;fill-opacity:1;stroke:#ffeeff;stroke-width:2.59892941;stroke-linecap:round;stroke-linejoin:round;stroke-miterlimit:4;stroke-dasharray:none;stroke-dashoffset:0;stroke-opacity:1" />
    <path
       id="path6873"
       d="M 65.874661,187.49333 H 141.29478"
       style="fill:none;fill-rule:evenodd;stroke:#000000;stroke-width:3.96875;stroke-linecap:butt;stroke-linejoin:miter;stroke-miterlimit:4;stroke-dasharray:none;stroke-opacity:1" />
    <rect
       ry="0"
       y="112.93175"
       x="84.66906"
       height="53.330078"
       width="39.067383"
       id="rect6878"
       style="opacity:1;fill:#ffffff;fill-opacity:1;stroke:none;stroke-width:3.96875;stroke-linecap:round;stroke-linejoin:round;stroke-miterlimit:4;stroke-dasharray:none;stroke-dashoffset:0;stroke-opacity:1" />
    <path
       id="path6873-1"
       d="M 65.87466,175.09073 H 86.931174"
       style="fill:none;fill-rule:evenodd;stroke:#000000;stroke-width:2.09702373;stroke-linecap:butt;stroke-linejoin:miter;stroke-miterlimit:4;stroke-dasharray:none;stroke-opacity:1" />
    <path
       id="path6873-1-0"
       d="M 65.87466,179.32409 H 86.931174"
       style="fill:none;fill-rule:evenodd;stroke:#000000;stroke-width:2.09702373;stroke-linecap:butt;stroke-linejoin:miter;stroke-miterlimit:4;stroke-dasharray:none;stroke-opacity:1" />
  </g>
</svg>
