<?xml version="1.0" encoding="iso-8859-1"?>
<!-- Generator: Adobe Illustrator 16.0.0, SVG Export Plug-In . SVG Version: 6.00 Build 0)  -->
<!DOCTYPE svg PUBLIC "-//W3C//DTD SVG 1.1//EN" "http://www.w3.org/Graphics/SVG/1.1/DTD/svg11.dtd">
<svg version="1.1" id="Capa_1" xmlns="http://www.w3.org/2000/svg" xmlns:xlink="http://www.w3.org/1999/xlink" x="0px" y="0px"
	 width="477.909px" height="477.909px" viewBox="0 0 477.909 477.909" style="enable-background:new 0 0 477.909 477.909;"
	 xml:space="preserve">
<g>
	<g>
		<path d="M292.038,148.874c-38.154-38.151-100.24-38.156-138.391,0c-38.156,38.151-38.156,100.233,0,138.385
			c38.151,38.154,100.237,38.158,138.391,0.01C330.19,249.106,330.19,187.024,292.038,148.874z M176.898,171.264
			c-17.114,17.114-29.412,37.071-36.9,58.042c-1.629-23.356,7.323-48.493,26.549-67.719c18.962-18.96,43.674-27.939,66.749-26.624
			C212.928,142.498,193.558,154.6,176.898,171.264z"/>
		<path d="M238.954,0C106.985,0,0,106.984,0,238.955c0,131.971,106.985,238.954,238.954,238.954
			c131.967,0,238.955-106.983,238.955-238.954C477.909,106.984,370.921,0,238.954,0z M387.022,382.243
			c-6.469,6.474-16.97,6.479-23.448,0l-49.266-49.261c-4.798-4.802-6.021-11.812-3.691-17.768l-9.334-9.334
			c-46.181,41.304-117.365,39.787-161.7-4.555c-45.913-45.905-45.913-120.614,0-166.526c45.912-45.917,120.625-45.917,166.525,0
			c44.343,44.335,45.863,115.52,4.556,161.7l9.339,9.344c5.945-2.329,12.96-1.11,17.772,3.696l49.256,49.256
			C393.505,365.274,393.505,375.775,387.022,382.243z"/>
	</g>
</g>
<g>
</g>
<g>
</g>
<g>
</g>
<g>
</g>
<g>
</g>
<g>
</g>
<g>
</g>
<g>
</g>
<g>
</g>
<g>
</g>
<g>
</g>
<g>
</g>
<g>
</g>
<g>
</g>
<g>
</g>
</svg>
